<?xml version="1.0" encoding="UTF-8" standalone="no"?><svg xmlns="http://www.w3.org/2000/svg" viewBox="0 0 1671.06 1076.01"><defs><style>.cls-1{fill:#ab834c}.cls-2{fill:#e6c7a9}.cls-3{fill:#d5af7c}.cls-31,.cls-33,.cls-4{fill:none}.cls-4{stroke:#a7a7a7;stroke-miterlimit:10}.cls-5{fill:#b6946d}.cls-6{fill:#634c30}.cls-7{fill:#51371a}.cls-8{fill:#59401b}.cls-9{fill:#ab824f}.cls-10{fill:#f8e7d9}.cls-11{fill:#b98b5e}.cls-12{fill:#706e77}.cls-13{fill:#4d4d4d}.cls-14{fill:#86858c}.cls-15{fill:#10100f}.cls-16{fill:#311c04}.cls-17{fill:#5a3908}.cls-18{fill:#482902}.cls-19{fill:#573c18}.cls-20{fill:#7f6145}.cls-21{fill:#6d635d}.cls-22{fill:#5b5654}.cls-23{fill:#483822}.cls-24{fill:#e4e7ee}.cls-25{fill:#786b5b}.cls-26{fill:#87683d}.cls-27{fill:#6a4e2a}.cls-28{fill:#2b1a08}.cls-29{fill:#9c896d}.cls-30{fill:#b98e59}.cls-31{stroke:#86858c;stroke-linecap:round;stroke-linejoin:round;stroke-width:7px}.cls-32{fill:#383631}.cls-34{fill:#897148}.cls-35{fill:#2d2527}.cls-36{fill:#1a1c19}</style></defs><title>Android v2</title><g id="Layer_2" data-name="Layer 2"><g id="SVGs"><path class="cls-1" d="M438.46 295.65v548l-23.19 9.63L33.13 736.49a27.82 27.82 0 0 1-19.68-25.82L0 210.28l242.41 47.2c-.29 14.7 2.73 34.25 4 38.17 2 6 5.75 24.75 18 24.75 5.64 0 19.76-.26 34.75-.67 17.56-.48 36.31-1.16 44-1.83 14.25-1.25 22-7.75 22-16.75 0-4.58 0-12.27 1.73-19.42z"/><path class="cls-2" d="M244 245.22a44.71 44.71 0 0 0-1.57 12.26L0 210.28a24.4 24.4 0 0 1 11.52-21.4z"/><path class="cls-3" d="M539.46.65c-.93 4.2 7.51 8.62 17.18 14.18 11 6.34 23.69 14.16 25.82 24.82 2.39 11.94 5.13 25.31-25.82 44.78-20.88 13.14-57.12 29.07-119.18 49.22C310.76 174.79 96 183.43 23.82 185.21a24.23 24.23 0 0 0-12.29 3.67L244 245.22a7.87 7.87 0 0 1 2.47-4S313.13 206 373.79 206s85.34 21.34 82.67 26c-2.87 3.35-8.31 6.88-15 10.34-23.61 12.15-63.08 23.47-63.08 23.47-4.43 1.81-7.38 5.41-9.32 9.73l74.48 18 209-86.3 123.06-50.83 185.86-76.76s-420-88-422-79zm176.22 145.18c-1.39.91-4.19 2.39-8 4.26-.14.1-.28.2-.43.29-5.64 3.58-36.62 17.12-59 26.4l-.58.24c-9.19 3.88-16.58 6.87-19.86 8q-2.43.81-4.92 1.46l-.82.22c-7.54 2-15.66 2.85-25.88 2.85h-2.71c-2.94 0-6-.11-9.33-.27a181.38 181.38 0 0 1-39.69-6.28c-7.67-2-20.33-6-30.33-11s-5-15 2.33-18.33S555.13 139 555.13 139s31.66-13.33 47.33-18.66 36.67-6 50-6 44.62 6.66 56.81 11.33 15.3 14.33 6.41 20.16z"/><path class="cls-4" d="M441.42 242.32c-23.61 12.15-63.08 23.47-63.08 23.47-4.43 1.81-7.38 5.41-9.32 9.73a35.68 35.68 0 0 0-2.08 6.21c-1.73 7.15-1.73 14.84-1.73 19.42 0 9-7.75 15.5-22 16.75-7.69.67-26.44 1.35-44 1.83 0 0-27-3.08-29.75-28.58-1.46-13.58-.16-22.2 2.66-27.89a19.82 19.82 0 0 1 9-9c.37-.2.74-.38 1.12-.56 8.5-4 51-22 81.25-23.5s49-.75 60.25 2.5a44.49 44.49 0 0 1 17.68 9.62z"/><path class="cls-5" d="M775.52 156.44l-123.06 50.83-209 86.3-5 2.08V834a34.52 34.52 0 0 0 16.31-4.09l476.35-255.26c-1-1.71-1.35-4 .34-7 2.2-3.85 8.93-8 14.55-11l15.45-477zm50.94 433.71c-56.24 41.43-81.3-26.94-85.85-41.41l-.35-1.11c-.29-1-.43-1.5-.43-1.5s-2.24-11.58-6.54-11.65h-.09c-5 0-6.22 7.34-11.57 10.67-8.84 5.5-17.17-2.5-22.5.83s-23.34 64.67-33.34 84.67-40.66 74-90.66 90.5c-29 9.57-53.75 2.93-70.45-24.86a3.34 3.34 0 0 1-.18-.29 26 26 0 0 1-1.76-3.1 1.33 1.33 0 0 1-.07-.14c-1.32-2.41-2.58-5-3.76-7.65-8.84-19.87-14.59-47.61-16.45-84.29C479 532.47 497.77 479.4 522 437.8v-.06a322.91 322.91 0 0 1 9.91-16A465.87 465.87 0 0 1 563.13 380c1.88-2.27 3.77-4.38 5.64-6.33 12.62-13.14 24.9-19.2 36-21.75 21.12-4.83 38.16 2.9 45.63-1.25a12.56 12.56 0 0 0 1.81-1.23c3-2.42 5.29-6.38 6.85-11.21a50 50 0 0 0 2.23-12.89c.48-10.06-1.61-21.13-6.89-29.67-11.33-18.33-7.33-34.33-7.33-34.33l93.13-39 5.48-2.3 12.72-5.33 27.75-11.75s-.5 19.75-6 37.5-9.55 33.58-6.75 43.25c2.2 7.6 5.58 7.74 6.53 7.62a1.42 1.42 0 0 0 .26-.05c3.94-.83 6.71-4.77 14.3-13.9 8.9-10.7 30-29.69 61.47-31.81 1.88-.12 3.81-.19 5.77-.19 34.67 0 63.34 50 64.67 122.66S889.13 544 826.46 590.15z"/><path class="cls-6" d="M780.21 240.4c-5.5 17.75-9.55 33.58-6.75 43.25 2.2 7.6 5.58 7.74 6.53 7.62a9.67 9.67 0 0 1-2.86 0c-6-.67-20-2-25.34-6s-5.33-13.34-2-29.34 8.67-41.33 8.67-41.33l27.75-11.75s-.5 19.8-6 37.55z"/><path class="cls-4" d="M531.92 421.72l-9.91 16c3.21-5.52 6.53-10.86 9.91-16zM502.74 692.9c.57 1.06 1.16 2.1 1.76 3.1a26 26 0 0 1-1.76-3.1zM682.51 541.92l-3.68 1.82c.66-1 1.2-1.5 1.63-1.59a10.89 10.89 0 0 1 2.05-.23z"/><path class="cls-7" d="M651.38 205.66l-.23-4.37v-.15l.15-.07q14.71-6.63 29.6-12.81l14.9-6.15 15-6 15-5.88c5-1.91 10-3.87 15.07-5.74 10.03-3.79 20.13-7.49 30.32-10.94H771.31l3.13 1.29-3.25-1h.13c-9.8 4.44-19.67 8.7-29.59 12.84-5 2.09-9.93 4.1-14.9 6.16l-15 6-15 5.89-15.06 5.74q-15.09 5.68-30.33 11l.15-.21z"/><path class="cls-8" d="M961.46 79.65l-7 473s-3.85 1.62-8.45 4z"/><path class="cls-9" d="M958.82 586.57c-1.95 1.07-502.87 275.09-506.36 278.08l-37.19-11.37 23.19-9.63V834a34.52 34.52 0 0 0 16.31-4.09l476.35-255.26a9.68 9.68 0 0 0 3.84 3.5z"/><path class="cls-10" d="M969 590.15S675.63 749.53 584.59 799.44h-.06c-12.89 7.08-21.72 12-25.07 13.85-2.36 1.34-4.44 2.65-6.28 3.94q-2.64 1.5-4.83 3a48.51 48.51 0 0 0-6.77 5.25 72.91 72.91 0 0 0-6.09 5.68c-1.8 1.89-3 5-3.63 8.82-.84.53-41.19 25.72-46.14 29.93a8.17 8.17 0 0 0-2.25 9.75 124.41 124.41 0 0 1-21.5-6c-10-4-9.5-9-9.5-9 3.49-3 504.41-277 506.36-278.08z"/><path class="cls-11" d="M1671 658.15c-6.5-6.5-202.66 79-202.66 79l-34.34-16S1022.46 996.4 990 1018.4s-63.5 16-81.5 9.5l-19-6.94c-62.13-22.76-249.4-91.7-283.5-105.3-11.5-4.59-21.54-8.9-30.26-13-21.22-10.11-34.62-19.28-42.24-29.2-1.08-1.41-3.92-20.82-1.61-33.43-.84.53-41.19 25.72-46.14 29.93a8.17 8.17 0 0 0-2.25 9.75s1.5 4 14.5 10.5C509.59 896 896.24 1042.26 977.55 1073a46.41 46.41 0 0 0 30.14.93l63.71-19.7a90.63 90.63 0 0 0 31.05-16.82c20.95-17.39 65.95-51 122-78.77 58.5-29 99-44.5 115-50.5S1677.46 664.65 1671 658.15zm-233.21 159.17c-31.33 22-100 56-100 56l-27.33 8-1.21-26.53 113.21-76.14 59.11-12.6 4.89 15.93s-17.33 13.34-48.67 35.34z"/><path class="cls-12" d="M1444.46 645.15s-329-108.5-361.5-106.5-114 51.5-114 51.5-293.33 159.38-384.37 209.29h-.06c-12.89 7.08-21.72 12-25.07 13.85-2.36 1.34-4.44 2.65-6.28 3.94-19.18 13.45-10.94 24 .61 30.06 1.84 1 9.7 4.15 21.91 8.91 66.3 25.9 260.77 98.46 313.76 116.43 4.54 1.54 8 2.68 10.33 3.35 34 10 66.67 22.67 98.67 1.34 5.7-3.8 467.5-299.77 467.5-314.1v-.07c-.5-9.5-21.5-18-21.5-18zm-428 307.5l-406-145 431-243 384 120.46z"/><path class="cls-13" d="M1466 696.15c-5 7.5-32 25-32 25S1022.46 996.4 990 1018.4s-63.5 16-81.5 9.5l-19-6.94v-48.33c4.54 1.54 8 2.68 10.33 3.35 34 10 66.67 22.67 98.67 1.34 5.7-3.8 467.5-299.77 467.5-314.1.48 9.51 4.95 25.45 0 32.93zM889.46 972.63v48.32c-62.13-22.76-249.4-91.7-283.5-105.3-11.5-4.59-21.54-8.9-30.26-13-21.22-10.11-34.62-19.28-42.24-29.2-1.08-1.41-3.92-20.82-1.61-33.43.68-3.77 1.83-6.93 3.63-8.82a72.91 72.91 0 0 1 6.09-5.68 48.51 48.51 0 0 1 6.77-5.25q2.19-1.45 4.83-3c-19.18 13.45-10.94 24 .61 30.06 1.84 1 9.7 4.15 21.91 8.91C642 882.1 836.47 954.66 889.46 972.63z"/><path class="cls-14" d="M541.75 825.65a22.62 22.62 0 0 0-4.82 6.2 10.11 10.11 0 0 0-.75 7.56 14.77 14.77 0 0 0 4.4 6.38 34.82 34.82 0 0 0 6.48 4.53 32.27 32.27 0 0 0 3.57 1.72l3.68 1.53 7.41 3 14.88 5.81q29.8 11.53 59.71 22.77 59.77 22.57 119.69 44.73l59.93 22.18c20 7.35 40 14.65 60.08 21.75 10.06 3.52 20.08 7 30.33 10 10.19 3.08 20.38 6.22 30.79 8.37s21.1 3.25 31.65 1.9a68.05 68.05 0 0 0 29.51-11.12l.28.42a72.36 72.36 0 0 1-14 8 66.64 66.64 0 0 1-15.57 4.31c-10.76 1.71-21.76.89-32.39-1s-21-4.88-31.24-7.73l-7.68-2.13-7.69-2.33c-5.12-1.62-10.18-3.29-15.25-5l-15.16-5.12-15.1-5.26-30.14-10.66c-20.06-7.2-40.05-14.57-60.05-21.91s-39.9-15-59.81-22.55l-29.81-11.52-14.9-5.79-14.86-5.89c-9.92-3.92-19.82-7.8-29.7-11.8l-29.58-12.13-14.71-6.28-7.34-3.21-3.67-1.66c-.61-.28-1.22-.57-1.84-.88s-1.25-.68-1.83-1a36.38 36.38 0 0 1-6.62-4.94 16 16 0 0 1-4.55-7.08 10.65 10.65 0 0 1-.25-4.29 12.1 12.1 0 0 1 1.36-4 23.19 23.19 0 0 1 5.22-6.2z"/><path class="cls-4" d="M584.53 799.47c-1.18.53-20.36 9.33-36.18 20.75-2.36 1.69-4.64 3.45-6.77 5.25"/><path class="cls-7" d="M1016.46 1053.31c18.34-13.06 36.78-26 55.17-38.94L1127 975.7c18.43-12.93 37-25.68 55.46-38.51l55.51-38.44 55.66-38.22c18.57-12.72 37.07-25.53 55.7-38.16l55.82-38c18.67-12.57 37.28-25.23 56-37.73-18.33 13.06-36.78 26-55.17 38.94l-55.35 38.68c-18.42 12.93-37 25.67-55.46 38.51l-55.51 38.44-55.66 38.22c-18.57 12.72-37.07 25.53-55.7 38.16l-55.82 38c-18.69 12.57-37.3 25.22-56.02 37.72z"/><path class="cls-15" d="M1486.46 782s-17.33 13.34-48.67 35.34-100 56-100 56l-27.33 8-1.21-26.53 113.21-76.14 59.11-12.6z"/><path class="cls-2" d="M443.5 293.57l-5 2.08-71.52-13.92a35.68 35.68 0 0 1 2.08-6.21z"/><path class="cls-4" d="M931.46 574.47l-.34.18"/><path class="cls-16" d="M892.46 427.65c-14 48.5-28.19 84.55-42.74 110.36l-109.46-24.69L745.74 220l12.72-5.33S753.13 240 749.79 256s-3.33 25.34 2 29.34 19.34 5.33 25.34 6a9.67 9.67 0 0 0 2.86 0 1.42 1.42 0 0 0 .26-.05c3.94-.83 6.71-4.77 14.3-13.9 8.9-10.7 30-29.69 61.47-31.81-.02-.07 69.98 65.57 36.44 182.07z"/><path class="cls-17" d="M844.5 546.83c-18.74 30-38 43.61-57.71 45.49-29.39 2.8-43.8-36.43-46.18-43.58l-.35-1.11c-.29-1-.43-1.5-.43-1.5s-2.24-11.58-6.54-11.65h-.09c-1.79 0-29.32-.17-31.74 0s-2.5 9.17-6.5 10.67c-3.61 1.35-6.41-3.41-12.44-3.23l57.74-28.6z"/><path class="cls-18" d="M745.74 220l-5.48 293.34-159.8 79.14-48.54-170.76A465.87 465.87 0 0 1 563.13 380c1.88-2.27 3.77-4.38 5.64-6.33 0 0-6.6 112.29 51.21 99.64 48.32-10.56 61.26-64.46 64.21-81.87 1.28-.32 2.67-.69 4.17-1.1 30.57-11 32.1-75.34 30.77-79s-13.49-4.67-13.49-4.67l34.62-84.37z"/><path class="cls-19" d="M641.59 624.86c-2.79 5.56-5.69 11.13-8.71 16.62l-58.42-44.16L522 437.8v-.06l9.91-16 48.54 170.74z"/><path class="cls-4" d="M531.92 421.72l-9.91 16c3.21-5.52 6.53-10.86 9.91-16z"/><path class="cls-16" d="M599.3 690.15c-8.09 8.55-16.58 15.07-25.34 18.5-44.32 17.33-63.5-3.59-69.28-12.36a3.34 3.34 0 0 1-.18-.29c-.6-1-1.19-2-1.76-3.1a1.33 1.33 0 0 1-.07-.14c-1.32-2.41-2.58-5-3.76-7.65z"/><path class="cls-20" d="M733.2 534.48c-5 0-6.22 7.34-11.57 10.67-8.84 5.5-17.17-2.5-22.5.83s-23.34 64.67-33.34 84.67-40.66 74-90.66 90.5c-29 9.57-53.75 2.93-70.45-24.86 5.78 8.77 25 29.69 69.28 12.36 8.76-3.43 17.25-10 25.34-18.5 12.18-12.85 23.49-30.28 33.58-48.67 3-5.49 5.92-11.06 8.71-16.62 18.41-36.86 31.76-73.17 37.24-81.12a4.39 4.39 0 0 1 1.63-1.59 4 4 0 0 1 2-.23c6-.18 8.83 4.58 12.44 3.23 4-1.5 4-10.5 6.5-10.67s30.01-.01 31.8 0z"/><path class="cls-21" d="M688.36 390.32c-1.5.41-2.89.78-4.17 1.1-12.26 3.14-14.65 2.75-14.65 2.75v-.19-.19c.38-2.65 2.31-18.48-3.47-29.14-6.34-11.67-13.86-15.23-13.86-15.23 3-2.42 5.29-6.38 6.85-11.21l60-26.89c1.4 3.68-.13 68-30.7 79z"/><path class="cls-22" d="M669.6 393.79v.38s-23.14-30.17-19.14-43.52a12.56 12.56 0 0 0 1.81-1.23s7.52 3.56 13.86 15.23c5.78 10.66 3.87 26.49 3.47 29.14z"/><path class="cls-23" d="M669.54 394.17l-17.08 2.48-47.63-44.75c21.12-4.83 38.16 2.9 45.63-1.25-4 13.35 19.08 43.52 19.08 43.52z"/><path class="cls-24" d="M669.54 394.17c-2.81 15.85-13.19 57.68-46.12 72.3-41 18.18-55-30.49-54.65-92.82 12.62-13.14 24.9-19.2 36-21.75l47.63 44.75z"/><path class="cls-25" d="M719.13 311.32l-60 26.89a50 50 0 0 0 2.23-12.89l44.29-18.67s12.14 1 13.48 4.67z"/><path class="cls-26" d="M740.26 222.28l-34.62 84.37-44.29 18.67c.48-10.06-1.61-21.13-6.89-29.67-11.33-18.33-7.33-34.33-7.33-34.33z"/><path class="cls-7" d="M826.46 590.15c-56.24 41.43-81.3-26.94-85.85-41.41 2.38 7.15 16.79 46.38 46.18 43.58 19.73-1.88 39-15.49 57.71-45.49 1.74-2.8 3.49-5.73 5.22-8.82 14.55-25.81 28.79-61.86 42.74-110.36C926 311.15 856 245.51 856 245.51c1.88-.12 3.81-.19 5.77-.19 34.67 0 63.34 50 64.67 122.66S889.13 544 826.46 590.15z"/><path class="cls-17" d="M678.83 543.74c-5.48 8-18.79 44.3-37.24 81.12l-61.13-32.4z"/><path class="cls-4" d="M366.94 281.73l-94.82-18.47M369.02 275.52l-87.93-21.31"/><path class="cls-27" d="M456.46 232c-2.87 3.35-8.31 6.88-15 10.34a44.49 44.49 0 0 0-17.71-9.67c-11.25-3.25-30-4-60.25-2.5s-72.75 19.5-81.25 23.5c-.38.18-.75.36-1.12.56a19.82 19.82 0 0 0-9 9c-2.82 5.69-4.12 14.31-2.66 27.89 2.75 25.5 29.75 28.58 29.75 28.58-15 .41-29.11.67-34.75.67-12.25 0-16-18.75-18-24.75-1.31-3.92-4.33-23.47-4-38.17a44.71 44.71 0 0 1 1.53-12.23 7.87 7.87 0 0 1 2.47-4S313.13 206 373.79 206s85.34 21.32 82.67 26z"/><path class="cls-28" d="M441.42 242.32c-23.61 12.15-63.08 23.47-63.08 23.47-4.43 1.81-7.38 5.41-9.32 9.73a35.68 35.68 0 0 0-2.08 6.21c-1.73 7.15-1.73 14.84-1.73 19.42 0 9-7.75 15.5-22 16.75-7.69.67-26.44 1.35-44 1.83 0 0-27-3.08-29.75-28.58-1.46-13.58-.16-22.2 2.66-27.89a19.82 19.82 0 0 1 9-9c.37-.2.74-.38 1.12-.56 8.5-4 51-22 81.25-23.5s49-.75 60.25 2.5a44.49 44.49 0 0 1 17.68 9.62z"/><path class="cls-29" d="M715.68 145.83c-1.39.91-4.19 2.39-8 4.26 7.66-5.24 4.7-13.69-6.35-17.79-11.25-4.18-40.11-10.15-52.41-10.15s-31.68.6-46.13 5.37-43.67 16.73-43.67 16.73-28.91 10.15-35.67 13.14-11.38 11.94-2.15 16.42 20.91 8.06 28 9.85a172.2 172.2 0 0 0 36.6 5.59q4 .18 7.57.24c-2.94 0-6-.11-9.33-.27a181.38 181.38 0 0 1-39.68-6.22c-7.67-2-20.33-6-30.33-11s-5-15 2.33-18.33S555.13 139 555.13 139s31.66-13.33 47.33-18.66 36.67-6 50-6 44.62 6.66 56.81 11.33 15.3 14.33 6.41 20.16z"/><path class="cls-30" d="M556.64 84.43v-69.6c11 6.34 23.69 14.16 25.82 24.82 2.39 11.94 5.13 25.35-25.82 44.78z"/><path class="cls-31" d="M841.76 926.65l-157.8-58.16"/><path class="cls-32" d="M826 980.37c-1.73 5.3-6.38 6.17-10.5 2.72s-6.88-10.27-6.47-16.28c.48-7 5.19-10.49 10.61-6.43 5.67 4.22 8.44 13.73 6.36 19.99z"/><path class="cls-33" d="M889.46 972.63v-.72M575.7 856.22v46.37"/><path class="cls-34" d="M684.19 391.42c-2.95 17.41-15.89 71.31-64.21 81.87-57.81 12.65-51.21-99.64-51.21-99.64-.36 62.33 13.69 111 54.65 92.82 32.93-14.62 43.31-56.45 46.12-72.3 0 0 2.39.39 14.65-2.75z"/><path class="cls-35" d="M707.69 150.09c-13.72 6.77-40.33 18.59-59.46 26.69l-.58.24c-9.93 4.1-18.09 7.33-21.48 8.43q-1.63.53-3.3 1l-.82.22a105.82 105.82 0 0 1-25.88 2.85h-2.71q-3.6-.06-7.57-.24a172.2 172.2 0 0 1-36.6-5.59c-7.07-1.79-18.76-5.37-28-9.85s-4.62-13.44 2.15-16.42 35.67-13.14 35.67-13.14 29.22-12 43.67-16.73 33.83-5.37 46.13-5.37 41.16 6 52.41 10.15c11.07 4.07 14.03 12.52 6.37 17.76z"/><path class="cls-36" d="M1425.46 685.11l-409 267.54-406-145 431-243 384 120.46z"/><ellipse class="cls-14" cx="899.96" cy="948.15" rx="10.5" ry="4.5"/><path class="cls-24" d="M1084.36 791.25c8 3.25 18.35 3.45 23.15.46l36.38-22.71c4.81-3 2.21-8.06-5.77-11.31s-18.35-3.46-23.15-.46l-36.39 22.71c-4.79 3-2.2 8.06 5.79 11.31m-149.3-27L913.9 767c-1.12.14-1.5.75-.85 1.35a4.52 4.52 0 0 0 3.2.81l21.39-2.84a103.65 103.65 0 0 0 24.77 13.76 168.11 168.11 0 0 0 31.83 9.28l-1 11.12c-.06.58 1 1.21 2.23 1.41s2.4-.11 2.43-.7l1-11c26 4.23 51.1 2.38 64.53-6l-130.28-53c-13.44 8.39-11.74 21.12 1.91 33m78.69 14.37c3 1.22 4 3.13 2.17 4.26s-5.72 1.06-8.73-.17-4-3.15-2.18-4.27 5.73-1.05 8.75.18m-59.32-24.13c3 1.22 4 3.14 2.18 4.27s-5.73 1.05-8.75-.17-4-3.15-2.16-4.27 5.72-1.05 8.73.17m111.49 27.61l56.36-35.2c5.14-3.2 2.37-8.59-6.16-12.06l-10.5-4.28 19.24-12c4.79-3 2.21-8.06-5.76-11.3s-18.37-3.45-23.16-.46l-19.24 12-19.53-7.94 19.24-12c4.79-3 2.21-8.06-5.77-11.3s-18.37-3.45-23.16-.46l-19.24 12-10.55-4.29c-8.51-3.46-19.58-3.69-24.71-.49l-56.37 35.2zM909.17 711c-4.8 3-2.21 8.06 5.78 11.3s18.35 3.45 23.15.46l36.37-22.71c4.8-3 2.22-8.05-5.77-11.31s-18.34-3.46-23.15-.46z"/></g></g></svg>
