<?xml version="1.0" encoding="UTF-8" standalone="no"?><svg xmlns="http://www.w3.org/2000/svg" viewBox="0 0 1395.91 1199.81"><defs><style>.cls-1{fill:#1e1e1e}.cls-2{fill:#747474}.cls-3{fill:#a7a7a7}.cls-4{fill:#424242}.cls-5{fill:#545454}.cls-6{fill:#141414}.cls-7{fill:#101010}.cls-8{fill:#090909}.cls-9{fill:#727272}.cls-10{fill:#3f3f3f}.cls-11{fill:#131313}.cls-12{fill:#2d2d2d}.cls-13{fill:#3e3e3e}.cls-14{fill:#171717}.cls-15{fill:#535353}.cls-16{fill:#404040}.cls-17{fill:#2f2f2f}.cls-18{fill:#454545}.cls-19{fill:#505050}.cls-20{fill:#282828}.cls-21{fill:#393939}.cls-22{fill:#878787}</style></defs><title>Oculus rift</title><g id="Layer_2" data-name="Layer 2"><g id="vive"><g id="Layer_29" data-name="Layer 29"><path class="cls-1" d="M758.1 548.76s4.73-36 32.67-55.33 78.34 2.67 78.34 2.67l-17.39 55.07z"/><path class="cls-2" d="M278.56 30.1c-19 14-41.46 36.29-59.13 70-33.9 64.67-14 122-14 122l-76 22c-6-33.34-1.1-93.34 25.33-133.34 8.78-13.28 43.92-69.57 123.8-80.66z"/><path class="cls-1" d="M718.67 302.42c-29.26-2-62.47 4.74-106.24 26-70 34-95 62-125 77s-69.65 22-106.82-9-132.18-145-143.18-163-38-49-66-43-63 43-77.51 75-52.49 157-55.49 237-4 166 0 181 10.34 26.86 28 25c23.95-2.52 168.46-41 241.23-79s136.77-67 182.77-93 147-96 173-105 42-32.5 107-10.75a203.39 203.39 0 0 1 27.5 11.65 1141 1141 0 0 0-79.26-129.9zM284.73 516.76l-3.92 2.1a800.06 800.06 0 0 1-107.62 47.85l-30.42 10.92c-36 6.46-47.52-32.95-44.33-62.21 5.77-53 12.11-90.86 25.19-136.6a295.06 295.06 0 0 1 24.53-59.89l1.9-3.49a20.35 20.35 0 0 1 33.23-3.64l109.49 125.78c21.45 24.64 20.51 63.31-8.05 79.18z"/><path class="cls-3" d="M34.47 687.57s8 16 24.2 20.86c15 4.5 47.75-7.75 47.75-7.75s-29.1-22.76-41.92-23.76-30.03 10.65-30.03 10.65z"/><path class="cls-4" d="M322.76 713.44S136.66 603 93.43 586.44c-21.84-8.38-48.86-20.45-75.33-23-24.78-2.44-18 26.68-14.67 36.67s32.67 92 32.67 92 12.67-18 35.33-9.33S322.76 822.1 322.76 822.1z"/><path class="cls-5" d="M1011.43 405.42s120 66 196 88 120 30 146 38 37 23.33 37 120.67-10.31 197.33-47 250-154 121.33-228 162.67S886.76 1188 818.1 1197.71c0 0-42.44 10.39-71.56-14.95s-16.44-22.67-45.11-46.67-119.33-97.33-119.33-97.33-82-15.33-139.33-68.67-75.33-98.67-81.33-113.33-31-108.33 7-173.33 109-87 162-100 257-12 356-75 96-125 96-125l11 28z"/><path class="cls-6" d="M1034.67 437.57s-21.49-5.9-27.24 9.35 7.39 28.61 7.39 28.61 10.64-5 16.36-20.86 3.49-17.1 3.49-17.1z"/><path class="cls-7" d="M982.43 383.42s11.5 30 15 39.5 11.93 59.31 11.93 59.31-66.74 78.57-96.47 91.71-105.18 25.48-218.49 31.82-203.64 23.67-249.31 59-57.33 66.67-67 97-30.29 0-30.29 0-13.21-73.58 75.87-136 228.13-50 304.92-66.66S864 530.39 912.88 489.91s68.88-74.82 69.55-106.49z"/><path class="cls-6" d="M1039 424.3s2.94 6.52-4.31 13.27l-37.24-14.65-6.36-10.71 20.36-6.79 30.48 16.18z"/><path class="cls-8" d="M895.43 375.43l8.67-93.34 47.23 34.67-10.57 104.39-45.33-45.72z"/><path class="cls-9" d="M940.76 421.15l9-89.06a27 27 0 0 0-10.87-24.44l-34.79-25.56h9.06a30.57 30.57 0 0 1 18.39 6.15l22.94 17.28A27 27 0 0 1 965.07 330l-9.64 86.73z"/><path class="cls-1" d="M930.43 395.42s26 23 20 46.15c-2.95 11.38-17.76 26.54-32 39a1202.81 1202.81 0 0 0-69.62-133.71c55.82 22.69 81.62 48.56 81.62 48.56z"/><path class="cls-10" d="M368.43 683.42c38-65 109-87 162-100s257-12 356-75 96-125 96-125l-52 12s6 69-75 108-114 46-211 55-142.76 19.36-192.88 47.18-83.12 77.82-83.12 77.82z"/><path class="cls-9" d="M368.43 683.42a169.5 169.5 0 0 1 27.76-35.73 193.88 193.88 0 0 1 35.92-27.63 266.33 266.33 0 0 1 40.83-19.81 420.41 420.41 0 0 1 43.21-13.94q5.48-1.48 11-2.86c1.83-.47 3.67-.92 5.53-1.31l2.79-.62 2.8-.51c7.47-1.37 15-2.36 22.49-3.26 15-1.79 30.09-3.23 45.13-4.72C636 570.1 666 567 696 562.86a903.42 903.42 0 0 0 89-16.41c14.67-3.54 29.17-7.73 43.42-12.64A306.6 306.6 0 0 0 870 516.23a280.08 280.08 0 0 0 37.92-24.38c3-2.21 5.94-4.61 8.9-6.95 1.49-1.15 2.89-2.41 4.33-3.62s2.88-2.42 4.28-3.67c5.6-5 11-10.21 16.18-15.69 10.21-11 19.44-23 26.53-36.18A125 125 0 0 0 977 405.2a91.18 91.18 0 0 0 2.8-10.8c.35-1.82.64-3.65.85-5.49a41.1 41.1 0 0 0 .31-5.42l1.83 1.39-52 12 1.13-1.55a72.77 72.77 0 0 1-.26 10.77 105.31 105.31 0 0 1-1.53 10.57c-.68 3.49-1.58 6.94-2.58 10.35s-2.21 6.76-3.59 10a116.45 116.45 0 0 1-23.06 35.57l-1.9 1.93c-.6.65-1.23 1.28-1.88 1.88l-3.86 3.66-4 3.47-1 .87-1 .82-2.1 1.63-2.1 1.63c-.7.54-1.44 1-2.16 1.54-1.45 1-2.89 2-4.36 3-3 1.87-5.94 3.86-9.06 5.54-1.54.86-3.06 1.78-4.63 2.59l-4.73 2.4c-1.57.82-3.16 1.58-4.75 2.32l-4.76 2.25c-6.33 3-12.74 5.93-19.14 8.84-12.85 5.71-25.84 11.15-39.08 15.94a369.58 369.58 0 0 1-40.51 12c-27.45 6.44-55.47 9.63-83.41 12.45l-41.93 4c-7 .74-14 1.42-20.92 2.27-3.48.42-7 .79-10.45 1.25l-10.43 1.38c-13.89 1.95-27.73 4.19-41.45 7.05a352.3 352.3 0 0 0-40.55 11A292.27 292.27 0 0 0 462 600.62c-3.12 1.59-6.2 3.27-9.3 4.9s-6 3.53-9.08 5.29c-.76.43-1.5.9-2.22 1.4l-2.19 1.45-4.38 2.91c-2.89 2-5.66 4.13-8.5 6.19a262.58 262.58 0 0 0-31.17 28.2 278.51 278.51 0 0 0-26.73 32.46zm0 0a278.71 278.71 0 0 1 26.49-32.71 263.13 263.13 0 0 1 31-28.5c2.83-2.09 5.59-4.26 8.48-6.27l4.37-3 2.19-1.48c.72-.5 1.46-1 2.22-1.42 3-1.79 6-3.66 9.08-5.38s6.17-3.37 9.29-5a293.36 293.36 0 0 1 38.7-16.66 338.92 338.92 0 0 1 40.66-11.24c13.76-2.94 27.63-5.25 41.54-7.26l10.44-1.43c3.48-.48 7-.86 10.46-1.3 7-.89 14-1.6 20.94-2.37l41.91-4.19q20.94-2.13 41.77-5c13.87-2 27.66-4.51 41.28-7.71a367.05 367.05 0 0 0 40.21-11.95c13.16-4.78 26.07-10.21 38.87-15.92 6.38-2.91 12.76-5.8 19.08-8.85l4.75-2.26c1.59-.75 3.17-1.5 4.71-2.31l4.65-2.38c1.54-.81 3-1.71 4.55-2.56 3.06-1.66 5.94-3.62 8.89-5.46 1.44-1 2.85-2 4.27-3 .71-.51 1.43-1 2.12-1.51l2.06-1.6 2.06-1.6 1-.8 1-.85 3.95-3.4 3.77-3.59c.64-.59 1.25-1.21 1.84-1.84l1.79-1.89a113.62 113.62 0 0 0 22.45-34.74c1.34-3.2 2.45-6.48 3.48-9.79s1.84-6.68 2.5-10.08a102.34 102.34 0 0 0 1.47-10.27 70.49 70.49 0 0 0 .24-10.26 1.46 1.46 0 0 1 1.14-1.59l52-12a1.46 1.46 0 0 1 1.75 1.09 1.53 1.53 0 0 1 0 .3 43.17 43.17 0 0 1-.34 5.9c-.22 1.92-.52 3.83-.89 5.72a94.16 94.16 0 0 1-2.9 11.14 127.91 127.91 0 0 1-9.1 21c-7.25 13.46-16.66 25.62-27 36.74-5.21 5.55-10.72 10.8-16.39 15.85-1.42 1.27-2.89 2.47-4.33 3.71s-2.87 2.49-4.38 3.65c-3 2.35-5.91 4.77-9 7l-4.57 3.4c-1.54 1.11-3.11 2.18-4.66 3.27s-3.1 2.19-4.68 3.25l-4.76 3.12c-1.6 1-3.14 2.12-4.79 3.08l-4.9 2.92-2.45 1.46-1.23.73-1.26.67-5 2.66a309.29 309.29 0 0 1-41.94 17.68c-14.35 4.92-28.94 9.1-43.67 12.64a865.94 865.94 0 0 1-89.35 16.16c-30 4-60.12 7-90.23 9.78-15.05 1.42-30.11 2.78-45.11 4.51-7.5.86-15 1.81-22.41 3.14s-14.7 3.3-22 5.16a419.07 419.07 0 0 0-43.19 13.55 265.39 265.39 0 0 0-40.85 19.41 193.32 193.32 0 0 0-36 27.27 169.32 169.32 0 0 0-28.04 35.46z"/><path class="cls-11" d="M266.43 281.42l19.72-17.25a5.56 5.56 0 0 1 7.93.62l48.57 58.26a9 9 0 0 1 0 11.67 53.92 53.92 0 0 1-15.16 12.13c-14.06 7.57-61.06-65.43-61.06-65.43z"/><path class="cls-12" d="M334.76 945.42c-6.55 24.92-24.08 67.92-83.7 67.38 59 0 57.9-58.9 53.37-77.71-6.39-26.61-30-84.67-80.67-113-61.18-34.2-124.34 27-101.63 92.3 0 0 0 .07.05.1 10.24 22.75 23 41.37 37.29 56a207 207 0 0 1-37.67-46.05 198.35 198.35 0 0 1-11-21.07c-26.33-62.67-4.33-107.56 38.34-131 26.24-14.41 68.79-10.64 125.66 30.33s66.63 117.39 59.96 142.72z"/><path class="cls-13" d="M251.06 1012.8h-2.96c-.79 0-1.58-.06-2.37-.11a117 117 0 0 1-40.62-9.9 145 145 0 0 1-45.64-32.2c-14.26-14.67-27.05-33.29-37.29-56 0 0 0-.07-.05-.1-22.71-65.31 40.45-126.5 101.63-92.3 50.67 28.32 74.28 86.38 80.67 113 4.57 18.71 5.63 77.61-53.37 77.61z"/><path class="cls-12" d="M258.76 936.09c0 36.62-22.5 64.59-51.09 66.55-.85.06-1.7.09-2.56.1a145 145 0 0 1-45.64-32.2c-14.26-14.67-27.05-33.29-37.29-56 2.32-34.48 15.36-57.2 50.75-62.58 40.57-6.2 85.83 42.68 85.83 84.13z"/><path class="cls-14" d="M99.32 618l-9.22 8.76 10.79 112.53s73.39 240.71 83.46 237.1 23.24-11 23.74-19.3c.45-7.54-20.08-259.53-24-307.74a12.34 12.34 0 0 0-8.14-10.62c-16-5.73-53.24-19-67.06-23a9.82 9.82 0 0 0-9.57 2.27z"/><path class="cls-15" d="M160.18 651.49a10.11 10.11 0 0 1 10.27 9.07l30.75 295.53s2.9 22.67-35.1 22.67-47.33-50-49.67-76-26.33-276-26.33-276a117.85 117.85 0 0 0 37.33 20 100.42 100.42 0 0 0 32.75 4.73z"/><path class="cls-11" d="M218.52 721.42c0 21-14.7 38-32.83 38-8.34 0-17.59 0-24.31-2.42-9.16-3.3-21.29-21.91-21.29-33.24 0-9.84 7.18-25.39 12.48-32.14 6-7.65 23.48-8.19 33.11-8.19 18.14-.01 32.84 17.01 32.84 37.99z"/><ellipse class="cls-16" cx="172.93" cy="721.42" rx="32.83" ry="38"/><path class="cls-17" d="M945.1 543.45c-.95-.16-80.33 43.64-80.33 43.64s-23.37-71.9-66.83-154.77a1141 1141 0 0 0-79.26-129.9c-54.8-77.21-126-154.5-214.57-207.67-98.82-59.29-172.18-72.06-225.55-64.65-22.45 4.54-47.56 15.31-77.36 30.64.56-.6 37.18-39.47 146.61-58 110.29-18.66 232.29 62 293.62 106 43.65 31.31 126.65 104.84 207.34 238.1a1202.81 1202.81 0 0 1 69.62 133.71c8.39 18.83 18.74 42.45 26.71 62.9z"/><path class="cls-18" d="M1041.16 421.19s90.27 50.24 166.27 72.24 120 30 146 38 40 20.33 40 117.67-13.31 200.33-50 253-154 121.33-228 162.67l-368.89 118c-29.11-25.33-16.44-22.67-45.11-46.67s-119.33-97.33-119.33-97.33-24.67-24.33-43.67-35.33-112-64.81-125-143.4-27-147.6 119-215.6c60-26 292-41 370-82s121-88 131-120a55 55 0 0 0 2.41-16.5 4.72 4.72 0 0 1 5.33-4.74z"/><path class="cls-19" d="M805.53 1198.59c-68.67 9.72-79.43-61.16-81.43-87.83s0-160 0-185.33c0-50.67 41.33-137 166.33-180s372-173 413-196 64-25.12 84.76 6.33c11.85 18 8.59 156.19 0 227s-7.86 116.67-139.11 197.13C1134 1050.45 952.64 1162 829 1195.73z"/><path class="cls-20" d="M818.1 1197.71c-68.67 9.72-76.67-62.95-78.67-89.61s0-143.33 0-168.67c0-21 26-135 151-178s372-173 413-196 73.82-35 80.39 0 5.79 155.39-2.8 226.19-28.24 130.74-143.94 200.27S941.76 1164 818.1 1197.71"/><path class="cls-7" d="M861.66 578c7.36-3.12 14.46-6.56 21.54-10l5.29-2.62c1.76-.87 3.49-1.81 5.26-2.68L899 560c1.73-.93 3.47-1.85 5.23-2.73l10.41-5.53c3.44-1.89 6.88-3.77 10.27-5.71L930 543c1.67-1 3.32-2 5-3.06.83-.51 1.63-1 2.44-1.57s1.6-1.08 2.38-1.63 1.55-1.12 2.31-1.68c.37-.28.75-.57 1.1-.86l.52-.43c.16-.13.35-.32.43-.37l3.08 2.32c-.26.31-.42.47-.63.68s-.39.39-.58.56c-.39.37-.78.71-1.18 1q-1.19 1-2.41 1.92a78.265 78.265 0 0 1-5 3.48q-5 3.34-10.23 6.3c-3.47 2-7 3.87-10.48 5.76l-5.31 2.74-5.36 2.63c-7.15 3.49-14.36 6.85-21.75 9.8q-5.52 2.25-11.17 4.18c-3.75 1.31-7.53 2.57-11.41 3.51z"/><path class="cls-20" d="M662.43 1023.42c9 0 17-9.5 17-32.5s.35-78 0-87c-.5-13-2.33-16.7-12-23.17L334.1 702.09s-19.5 4-19.5 24.67v107.33l326.5 184.62a36.39 36.39 0 0 0 17.91 4.71z"/><path class="cls-7" d="M649.43 908.92v98.5c0 10 4 16 13 16s17-9.5 17-32.5.35-78 0-87c-.5-13-4.5-20.5-11-20.5s-19 8-19 25.5zM317.93 732.92v94.5l318.5 180.5v-100.5l-318.5-174.5z"/><path class="cls-21" d="M636.43 914.92v82.5s-.9 6.58-9 4c-22-7-255-142.5-255-142.5v-86.5z"/><path class="cls-22" d="M1112.09 720.23l3.52-1.62v16.53l-3 1.31-.14-1.17a36.35 36.35 0 0 1-3 2.67c-3.53 2.54-7.89 2.62-8.23-2.31-.23-3.33 0-6.87 0-10.38l3.41-1.57v1.61c.05 2.64 0 5.35.2 7.91s2.5 3.09 4.87 1.11a6.18 6.18 0 0 0 2.33-4.67c.08-2.77.06-5.49.09-8.24-.05-.36-.05-.71-.05-1.18zM1127.72 713l3.42-1.57v1.15c0 2.84 0 5.73.15 8.51.17 3 2.4 3.69 4.87 1.63a6.18 6.18 0 0 0 2.34-4.52c.12-3 .1-6 .13-8.93v-1.28l3.52-1.62v17.29l-3.05 1.32-.12-1.13a37.26 37.26 0 0 1-3.55 3c-4 2.62-7.35 1.37-7.66-3.06-.24-3.42-.05-7.1-.05-10.79zM1157.44 700.53l-1.65 3.41a18.54 18.54 0 0 0-3.16.39 6 6 0 0 0-2.19 1.34 3.27 3.27 0 0 0-.86 1.75 1 1 0 0 0 .81.92 10.25 10.25 0 0 0 2.14-.16 17.71 17.71 0 0 1 3.08-.17c1.6.17 2.61 1.24 2.6 3.41a8.73 8.73 0 0 1-2.61 6.06 9.85 9.85 0 0 1-7 3.35 21.41 21.41 0 0 1-3.49-.49l2-4a5.86 5.86 0 0 0 5.18-.25 6.4 6.4 0 0 0 1.61-1.15c1.2-1.21 1.27-2.78.11-3a7.28 7.28 0 0 0-2.12.06c-1 .09-2 .33-3 .35-1.64 0-2.76-.79-2.84-2.87a8.38 8.38 0 0 1 2.37-5.86c2.58-2.9 6.58-4.31 9.02-3.09zM1096.12 739l2.63 1.27c-2.57 4.32-8 6.91-11.1 5.45s-3.55-7.07-.72-11.76c2.67-4.44 8-7.32 11.14-5.91l-2.08 3.74c-3.39.22-5.53 1.53-6.74 4.09-1.12 2.36-.84 4.94.63 5.79 1.64 1.01 4.03-.05 6.24-2.67zM1123.48 731.76l-3.46 1.49v-25.76l3.46-1.65zM1074.53 737.13c-4.47 2-7.86 7-7.87 11.57s3.34 6.53 7.83 4.61a13.41 13.41 0 0 0 7.83-11.51c.02-4.7-3.32-6.71-7.79-4.67zm0 12.6c-2.51 1.1-4.32 0-4.3-2.62a7.46 7.46 0 0 1 4.3-6.38c2.5-1.13 4.32 0 4.31 2.62a7.37 7.37 0 0 1-4.35 6.37z"/></g></g></g></svg>
