<?xml version="1.0" encoding="UTF-8" standalone="no"?><svg width="1000" height="1000" viewBox="0 0 1000 1000" xmlns="http://www.w3.org/2000/svg"><title>152 - iPad</title><g fill="none" fill-rule="evenodd"><path d="M206.37 631.171c45.55 0 39.505 7.268 65.098 7.268-16.306 67.334 85.814 147.11 71.32 145.565-148.644-73.134-120.841-102.238-136.417-152.833z" fill="#3E3E3E"/><path d="M264.562 696.398c104.42 33.23 177.202 36.506 177.202 36.506s532.345-8.697 477.718 19.18c-440.788 101.81-585.086 45.942-632.21-4.452-24.656-26.366-22.71-51.234-22.71-51.234z" fill="#232323"/><path d="M328.161 361.35c158.307-9.767 492.04-10.197 601.468 21.565 4.898 5.909-325.356 7.678-325.356 7.678s-200.64 8.923-304.059-6.313c-103.42-15.235 0 0 27.947-22.93z" fill="#505051"/><path d="M443.145 422.812c0-9.635 16.747-73.73 91.873-9.635-66.367 88.879 0 374.89 0 374.89L446.241 773.3s-37.708-236.754-3.096-350.49z" fill="#2F3032"/><path d="M539.605 419.432s35.069 36.913 109.105 68.343c-32.519 88.55-52.134 114.483-109.105 277.457-13.06 21.346-32.035-15.202-33.305-28.03-.985-9.956-12.232-232.729 0-280.937 12.233-48.208 33.305-36.833 33.305-36.833z" fill="#262627"/><path d="M478.539 387.024s22.566-18.544 57.956-21.604c79.769-6.896 224.685-8.506 323.18-9.922 89.78 10.237 99.435 41.023 108.01 56.5-114.203-10.621-445.804 0-445.804 0l-43.342-24.974z" fill="#3C3C3E"/><path d="M534.695 408.263c98.692-13.007 421.423-30.825 435.077 6.552 13.683 62.872 10.666 213.44 0 276.868-10.667 63.429-71.018 63.429-71.018 63.429l-354.451 8.1L664.31 489.266s-13.508-4.023-32.532-10.299c-59.187-19.526-171.77-60.862-97.083-70.705z" fill="#282828"/><path d="M528.553 418.7l19.204-4.129 117.376 70.85s-11.017 3.276-22.587 3.276c-60.43-16.814-113.993-69.996-113.993-69.996z" fill="#1C1C1E"/><path d="M643.684 483.49h21.982s-45.66 119.402-69.581 171.082c-23.92 51.68-64.97 135.067-57.283 109.55 9.92-53.473 104.882-280.633 104.882-280.633z" fill="#5D5D5F"/><path d="M940.058 408.418l-11.415 1.356-69.766 84.846 9.745-3.968" fill="#1C1C1E"/><path d="M878.921 487.181l-13.066 6.295s27.14 96.41 41.358 138.284c14.218 41.874 38.617 108.737 34.048 86.881" fill="#444448"/><path fill="#3D3D3D" d="M825.146 402.264h6.192v147.407h-6.192z"/><path fill="#353537" d="M707.672 402.264h3.096v147.407h-3.096z"/><path fill="#1F1F1F" d="M707.672 549.946h126.93v6.551h-126.93z"/><path d="M461.773 432.512s33.721-15.94 56.674-8.646c-35.285 72.724-12.773 323.115-12.773 323.115s-34.402-10.688-46.997 0c-27.666-87.654 3.096-314.469 3.096-314.469z" fill="#313132"/><path d="M404.239 242.119C132.795 287.69 181.36 449.8 181.36 449.8H76.102S101.298 139.637 404.24 242.12z" fill="#27262C"/><path fill="#000002" d="M16.783 431.801h40.246v36.033H16.783z"/><path fill="#1B1B1D" d="M20.273 437.954H209.12v49.136H20.273z"/><path d="M17.913 447.8l252.306 40.28-3.35 160.363S86.035 599.186 21.01 599.186C8.365 553.056 17.913 447.8 17.913 447.8z" fill="#242426"/><path d="M327.54 363.46c12.956 0-63.603 23.864-59.099 122.104-12.141 8.599-61.917-6.552-61.917-6.552S197.02 353.358 327.541 363.46z" fill="#313131"/><path d="M193.576 245.21C413.86 62.683 666.04 358.022 666.04 358.022H541.486S400.582 196.432 193.576 245.21z" fill="#424244"/><path d="M307.504 383.06c73.935-3.276 155.204 11.068 155.204 11.068s-46.649 61.592-18.92 341.935c-137.995 0-178.163-44.754-178.163-44.754s-32.057-304.974 41.879-308.25z" fill="#29292B"/><text transform="rotate(-7 682.49 733.332)" font-family="RobotoCondensed-Regular, Roboto Condensed" font-size="24" font-style="condensed" fill="#D7D2D2"><tspan x="695.263" y="741.332">Development Kit 2</tspan></text><path d="M469.234 261.978l100.44-7.396s75.758 67.158 97.429 102.814c-6.192 9.2-61.712 0-97.429 0-20.985-43.457-100.44-95.418-100.44-95.418z" fill="#49494B"/><path d="M282.035 500.719l41.955 6.083s67.53 54.919 7.43 138.186l.169 3.138-63.56-6.087-3.503-138.746 17.51-2.574z" fill="#404042"/><path d="M280.006 510.564l37.091 5.55s59.701 50.106 6.569 126.074l.149 2.863-56.193-5.553-3.096-126.586 15.48-2.348z" fill="#2F2F30"/><g transform="translate(292.441 552.408)"><ellipse fill="#222121" cx="23.219" cy="29.481" rx="23.219" ry="29.481"/><ellipse fill="#222" cx="19.902" cy="28.2" rx="12.758" ry="20.509"/><path fill="#161515" d="M23.306 12.999l4.661 2.076-11.47 25.762-4.661-2.076z"/></g><path fill="#212123" d="M255.221 510.564H270.7v124.477h-15.479z"/><text transform="rotate(-7 742.345 683.446)" font-family="RobotoCondensed-Regular, Roboto Condensed" font-size="42" font-style="condensed" fill="#646060"><tspan x="748.729" y="697.946">Oculus</tspan></text><path d="M661.703 692.486c3.691-4.725 19.494-20.314 36.595-21.794 17.101-1.479 32.632 9.415 34.718 15.625l-24.377 2.109c-.02-6.171-5.06-10.74-11.28-10.201-6.218.538-11.26 5.978-11.26 12.15-8.68.752-17.162 1.485-24.396 2.11zm71.313-6.169c-3.691 4.725-19.494 20.314-36.595 21.794-17.101 1.479-32.632-9.415-34.718-15.625l24.377-2.109c.02 6.171 5.06 10.74 11.28 10.201 6.218-.538 11.26-5.978 11.26-12.15l24.396-2.11z" fill="#575455"/><path d="M700.767 692.393c3.316-.18 6.005-1.993 6.005-4.05 0-2.058-2.689-3.58-6.005-3.401-3.317.18-6.006 1.993-6.006 4.05 0 2.058 2.689 3.58 6.006 3.401z" fill="#575455"/></g></svg>
