<?xml version="1.0" encoding="UTF-8" standalone="no"?><svg xmlns="http://www.w3.org/2000/svg" viewBox="0 0 1303.62 1059.97"><defs><style>.cls-1{isolation:isolate}.cls-2{fill:#515151}.cls-3{fill:#454545}.cls-4{fill:#363636}.cls-5{fill:#191919}.cls-6{fill:#0f0f0f}.cls-7{fill:#575757}.cls-8{fill:#2d2d2d}.cls-9{fill:#1d1d1d}.cls-10{fill:#404040}.cls-11{fill:#020202}.cls-12{fill:#636363}.cls-13,.cls-24{fill:#494949}.cls-13{stroke:#2a2a2a;stroke-width:1.18px}.cls-13,.cls-16{stroke-miterlimit:10}.cls-14{fill:#1c1c1c}.cls-15{fill:#303030}.cls-16,.cls-22{fill:none}.cls-16{stroke:#303030;stroke-width:2.36px}.cls-17{fill:#2b2b2b}.cls-18{fill:#2a2a2a}.cls-19{fill:#727272}.cls-20{mix-blend-mode:multiply}.cls-21{fill:#999}.cls-23{fill:#282828}.cls-25{fill:#1e1e1e}.cls-26{fill:#f2f2f2}.cls-27{fill:#333;mix-blend-mode:screen}.cls-28{fill:#848484}</style></defs><title>Vive V2</title><g class="cls-1"><g id="Layer_2" data-name="Layer 2"><g id="vive"><g id="Layer_29" data-name="Layer 29"><path class="cls-2" d="M100.94 163.53c3.52-3.42 7.06-6.81 10.63-10.25a96.16 96.16 0 0 0-10.63 10.25zm732.41 95.12c7.84 11.7 14.66 23.73 19.35 35.37h.79a26.16 26.16 0 0 1 10.44 2.3 37.8 37.8 0 0 1 9.34 5.73l19.6 14.06c-.38-1.75-.79-3.51-1.23-5.28 0-.12-.06-.22-.08-.34q-.37-1.52-.78-3c-.34-1.32-.7-2.64-1.07-4-.24-.85-.47-1.71-.72-2.56-.4-1.38-.81-2.77-1.25-4.17-.22-.72-.46-1.45-.71-2.18-.19-.57-.39-1.12-.6-1.69q-1.45-4-3.35-8.18c-.41-.91-.85-1.82-1.29-2.74-.67-1.37-1.37-2.75-2.1-4.14-.24-.46-.48-.92-.73-1.38l-.76-1.4c-.52-.92-1-1.85-1.57-2.79s-1.09-1.87-1.64-2.8l-1.71-2.81c-.87-1.41-1.77-2.81-2.69-4.23l-.92-1.41c-1.5-2.25-3-4.52-4.64-6.78-7.43 1.05-15.88 2.26-24.8 3.51zm-102.18-89.22c4.67 4.43 9.39 9 14.07 13.53l1.42 1.39c26.17 25.59 51.39 52.32 65.95 71.29l17.34-2c-22.9-32.82-52.51-62.24-63-72.31l-.07-.06c-2.44-2.35-3.84-3.62-3.84-3.62s-8.36-8.43-22.27-21.26c-6.61 2.45-9.13 7.69-9.6 13.04zm40.09 11l2-.39-2 .4c28.74 27.36 50.74 52.3 65.5 72.44 9.88-1.12 18.65-2.11 25.29-2.82 6.17-.66 10.48-1.09 12.1-1.18l1.3-.07c-.21-.28-.43-.56-.65-.83-.52-.66-1-1.31-1.57-2l-.51-.63c-.9-1.11-1.79-2.21-2.7-3.31s-1.63-2-2.44-2.93a94.65 94.65 0 0 0-1.61-1.89l-2.44-2.83-2.12-2.39c-.93-1.06-1.87-2.1-2.81-3.14q-2.46-2.74-4.92-5.38t-4.92-5.21c-.81-.86-1.63-1.7-2.44-2.54q-2.44-2.52-4.85-4.92c-.8-.8-1.61-1.61-2.41-2.38-6-5.91-11.76-11.35-17.15-16.22-.72-.65-1.43-1.3-2.14-1.92-3.52-3.15-6.85-6.06-9.93-8.69l-1.84-1.52-.94-.79-2.49-2.09-1.16-1-.9-.73-2.66-2.18-1.32-1.06-1.32-1.06-.63-.5-.6-.48c-.26-.19-.51-.39-.74-.58l-.4-.32c-.37-.28-.72-.55-1.05-.83l-.35-.27-.3-.24-2.3-1.77-.47-.35c-1-.79-1.58-1.19-1.58-1.19s-5.55-4.77-15.09-12.55c-2.15.19-4.36.39-6.56.61-5.16.52-10.27 1.11-14.28 1.59l-7.19.9c-.67.08-1.3.19-1.91.31q14.64 12.77 27.5 24.98zM816.55 261c11 15.36 18.53 29.67 23.52 43.54.87-8.93 9.88-10.29 12.63-10.51h.79a26.16 26.16 0 0 1 10.44 2.3 37.8 37.8 0 0 1 9.34 5.73l19.6 14.06 1.2.85L924.81 339a404.39 404.39 0 0 0-17.87-41.71c-.48-1-1-1.92-1.48-2.89l-1-1.82q-.25-.5-.53-1c-.54-1-1.1-2.05-1.68-3.07-.46-.85-.94-1.7-1.43-2.54-.3-.53-.6-1.07-.92-1.61-.61-1.06-1.24-2.11-1.88-3.16s-1.18-1.95-1.78-2.92c-.45-.74-.91-1.48-1.38-2.21-.57-.9-1.13-1.78-1.71-2.68l-.07-.11q-1.47-2.28-3-4.53c-.14-.21-.28-.44-.44-.65l-.71-1.05-1.84-2.63c-.73-1.06-1.49-2.11-2.23-3.15-.91-1.26-1.83-2.53-2.76-3.77-.52-.71-1-1.4-1.57-2.1-.79-1.05-1.59-2.1-2.38-3.13l-13.15 1.9c-7.43 1.05-15.88 2.26-24.8 3.51l-6.86 1z"/><path class="cls-3" d="M10.56 594.79c1.62 14.59 4.43 43.29 33.65 49.88 20 4.52 105.37.89 105.37.89l175.81 1.38 367.47-186.79 326.2-59.87L907.8 265.7s3.54-7.08 0-11.81-10.92-13-18.3-18a7.7 7.7 0 0 0-3.08-1.43 33.45 33.45 0 0 0-4-8s-157-144-279.2-190.66S384.21 1.55 371.82 1.85c-9.79.22-11.11.28-11.24.3-.38-.08-21.82-4.43-86.16 23-64.93 27.71-72 57.85-72 57.85S154 112.52 111.6 153.25l182.3 31.56 188.1 70 58.38 100.74-110.32 103.08-226.67 53.52-53.81-52S61.14 362.76 60 278.28c-.8-60 25.58-97.88 40.91-114.75-38.39 37.3-73.78 77.64-92.71 186.29C-9.86 453.54 7 562.91 10.56 594.79zm573.76-357.72c-44.86-36-152.88-79.1-192.43-96.81s-33.06-43.68-27.15-53.13S384.8 69.43 386 68.84c50.76 10.63 106.84 36 173.54 75.56S704.74 266 710.05 270.72s17.12-5.9 21.25-5.9c2.31 0 43.6-4.83 81.31-9.17-14.56-19-39.77-45.7-65.95-71.29l-1.42-1.36c-4.69-4.57-9.4-9.1-14.07-13.53.47-5.35 3-10.59 9.59-13 13.9 12.76 22.24 21.19 22.24 21.19s1.39 1.28 3.84 3.62l.07.06c10.51 10.07 40.12 39.49 63 72.31l6.81-.77C822 232.74 800 207.8 771.27 180.49l2-.4-2 .39q-12.86-12.18-27.51-24.95c.61-.12 1.24-.22 1.91-.31l7.19-.9c4-.48 9.13-1.07 14.28-1.59 2.21-.22 4.42-.42 6.56-.61 9.54 7.78 15.09 12.55 15.09 12.55s.55.4 1.58 1.19l.47.35 2.3 1.77.3.24.35.27c.33.27.68.54 1.05.83l.4.32c.24.19.48.39.74.58l.6.48.63.5 1.32 1.06 1.32 1.06 2.66 2.18.9.73 1.16 1 2.49 2.09.94.79 1.82 1.55c3.08 2.63 6.41 5.54 9.93 8.69a520.171 520.171 0 0 1 19.29 18.14c.8.78 1.61 1.58 2.41 2.38q2.41 2.41 4.85 4.92c.81.84 1.63 1.68 2.44 2.54q2.46 2.55 4.92 5.21t4.92 5.38c.94 1 1.88 2.08 2.81 3.14l2.11 2.41 2.44 2.83c.54.63 1.07 1.25 1.61 1.89.81 1 1.64 1.95 2.44 2.93s1.81 2.2 2.7 3.31l.51.63c.53.65 1.05 1.3 1.57 2 .22.27.44.54.65.83 8.54-.53 10.27-1.25 11.36-6l6.82 7.26s-5.93.86-15.45 2.22c.79 1 1.59 2.08 2.38 3.13.53.7 1.05 1.39 1.57 2.1.93 1.24 1.85 2.5 2.76 3.77.74 1 1.5 2.09 2.23 3.15l1.84 2.63.71 1.05c.15.21.3.44.44.65q1.54 2.25 3 4.53l.07.11c.58.9 1.15 1.78 1.71 2.68.47.73.93 1.46 1.38 2.21.6 1 1.19 1.94 1.78 2.92s1.26 2.1 1.88 3.16c.32.53.63 1.07.92 1.61.48.84 1 1.69 1.43 2.54.58 1 1.13 2 1.68 3.07q.28.5.53 1l1 1.82c.51 1 1 1.92 1.48 2.89A404.39 404.39 0 0 1 924.81 339c20.71 14.87 40.4 29.05 43.2 31.19 6.2 4.72 4.43 21.12 4.43 21.12s-13.72 2.16-31.29 4.77c-7.71 1.15-16.16 2.39-24.52 3.57-6.21.87-12.36 1.72-18.11 2.48-8.1 1.05-15.41 1.94-21 2.48-5.91.58-9.92.78-10.89.41a7.48 7.48 0 0 1-.86-.39c-4.18-2.1-13.25-9.39-19.07-15.3-3.13-3.18-5.31-6-5.31-7.33 0-4.13-1.88-71.81-1.32-77.47-5-13.87-12.54-28.18-23.52-43.54-35.75 5-71.59 9.74-77 9.74-11.22 0-11.22 4.13-13.58 8.85s.59 8.85 4.72 11.81 13 2.36 13 2.36l99.76 124.55s-36-20.07-87.36-49-126.91-96.22-171.77-132.23z"/><path class="cls-4" d="M853.61 294c10.57 0 19.65 8 19.65 8s88.54 63.46 94.74 68.18 4.43 21.12 4.43 21.12-88.43 13.9-103.77 13.9a7 7 0 0 1-2-.19c-5.46-2.07-25.24-18.89-25.24-23s-1.88-71.82-1.32-77.47c1-10.55 13.43-10.55 13.43-10.55h.13m0-8.26h-.17a26.68 26.68 0 0 0-9.41 1.93c-7.14 2.92-11.47 8.63-12.2 16.08-.38 3.84.06 26.11 1 63.26.18 7.5.33 14 .33 15 0 3.36 1 7.56 13.36 18.47 2.67 2.36 11.79 10.22 17.22 12.28a13.37 13.37 0 0 0 5 .72c15.58 0 95.94-12.56 105.05-14a8.26 8.26 0 0 0 6.93-7.28c.53-4.94 1.56-21.58-7.64-28.58-6.1-4.65-88.08-63.41-94.64-68.11-2.26-1.91-12.34-9.79-24.76-9.79z"/><path class="cls-5" d="M191.93 218.37s-32.61 145.42-18.45 286.3-46 92.87-46 92.87-16.53-157.41-8.26-235.33 21-156.57 21-156.57z"/><path class="cls-6" d="M386 68.84s-69.5-26.35-114.89-10.43-59 18.4-68.71 24.61S124.28 137.88 95 170s-38.77 82-35 108.27c0 0 46.16-40 135.49-45.14s197.94 23.77 233.36 45.14 48.4 46 48.8 68.09-7.87 43-38.17 63.86-142.04 65.72-181.78 77.13-69 15.48-69 15.48l98.75 91.36L602 489.13l97.4-35.42 146-33.76-15.32-18.35-88.45-43.81-27.45-18.89s-109.5-89.72-129.27-104.48-39.84-28.92-75.26-46.63-57.55-26.86-87.65-38.37-49.45-22.21-55.49-32.76-6.2-20.36-1.77-29.51S386 68.84 386 68.84z"/><path class="cls-7" d="M804.32 429.18s-122.31 18-199 16.85-194.5-.89-248.21 36.89c-54.19 38.11-97.4 93-83.23 222.83s56.62 187.72 103.84 213.69 74.38 24.79 105.07 27.15 111.69 0 111.69 0z"/><path class="cls-8" d="M804.32 429.18S685.85 459 609.11 457.84s-198.34-1.18-246.74 29.51c-50.45 32-102.71 88.54-88.54 218.4s56.67 187.72 103.89 213.69 74.38 24.79 105.07 27.15 111.69 0 111.69 0z"/><path class="cls-9" d="M716.26 480.27S493.13 490.9 453 632.56s-7.08 214.86 21.25 256.18 112.15 68.47 112.15 68.47z"/><path class="cls-10" d="M735.43 480.27S512.31 490.9 472.17 632.56s-7.08 214.86 21.25 256.18 112.15 68.47 112.15 68.47z"/><ellipse class="cls-10" cx="368.57" cy="728.93" rx="77.33" ry="96.95" transform="rotate(-9.19 368.68 729.091)"/><ellipse class="cls-11" cx="353.15" cy="734.38" rx="61.23" ry="94.03" transform="rotate(-9.19 353.214 734.548)"/><path class="cls-9" d="M368.17 827.21a43.88 43.88 0 0 0 14.25-5.51 50.53 50.53 0 0 0 11.58-9.91c6.76-7.64 11.44-16.92 14.63-26.56a116.53 116.53 0 0 0 5.47-30 143.67 143.67 0 0 0-9.7-59.9 116.47 116.47 0 0 0-14.65-26.71c-6.07-8.15-13.44-15.47-22.26-20.59a50.52 50.52 0 0 0-14.09-5.76 43.89 43.89 0 0 0-15.26-.74 42 42 0 0 1 15.39.12A51.43 51.43 0 0 1 368 647c9.12 5 16.78 12.34 23.14 20.5a113.25 113.25 0 0 1 15.28 27 140.6 140.6 0 0 1 9.85 60.87 113.2 113.2 0 0 1-6 30.42c-3.46 9.75-8.42 19.12-15.49 26.75a51.41 51.41 0 0 1-12.1 9.67 42 42 0 0 1-14.51 5z"/><path class="cls-6" d="M127.38 608.88s-44.21-43.61-52.18-49.81-19.48-10.63-28.92 2.07-20.07 36.6-20.66 46.34-.89 30.69 18.59 37.19 89.43 1.48 89.43 1.48l15.94-.59L136 611z"/><path class="cls-12" d="M10.56 594.79C7 562.91-9.86 453.55 8.2 349.82 28.86 231.17 69.18 194 111.59 153.25c0 0-73.64 61.29-37.28 185 16.61 56.47 72.22 118.48 72.22 118.48l133.83 131L267 646.47l-117.39-.92-22.2-36.67s-50.53-51.72-56.6-53.52-21.22-11-35.26 16.69S17.35 611.9 20 620.46s4.43 18.59 24.2 24.2c0 0-19.31-2.09-25.59-16.1s-8.05-33.77-8.05-33.77z"/><path class="cls-13" d="M148.1 456.66h-8.41s-27.31 132.52-27.31 133.4v4.72l64.34 60.5 58.73 17.12-4-130.93z"/><path class="cls-6" d="M152.41 499.66s-28.22-30-50.65-45.36c-6.79-5.9-9.44-10.63-14.17-15.94s-12.4-13.28-16.82-17.71-17.41-8.56-23.91 4.43-10 23.61-9.15 43.39 7.68 32.17 13.29 38.66 16.23 19.48 16.23 19.48 5.61 6.2 11.22 12.1 21.81 17.71 25.81 21.25S131 591.33 131 591.33z"/><path d="M152.41 499.66c-4.12-3.91-8.24-7.81-12.41-11.65s-8.33-7.68-12.57-11.44-8.52-7.46-12.87-11.05-8.82-7.06-13.43-10.28h-.06a63.16 63.16 0 0 1-8-8.47c-2.39-3-4.56-6.1-7.09-8.93s-5-5.72-7.55-8.59l-7.65-8.52c2.85 2.55 5.59 5.21 8.33 7.87s5.42 5.39 8.07 8.15 5.07 5.82 7.47 8.73a65.66 65.66 0 0 0 7.86 8l-.1-.08c4.72 3.24 9.24 6.72 13.62 10.37s8.61 7.46 12.77 11.34 8.18 7.9 12.12 12c2 2 3.91 4.13 5.83 6.22s3.82 4.16 5.66 6.33z"/><path class="cls-14" d="M252.97 742.75l-93.65-88.93 29.34-150.99 95.8 86.45-13.35 159.37-18.14-5.9z"/><path class="cls-10" d="M297.44 776.59l-33.35-26s-4.53 2.16-11.31-4c-3.88-3.54-4-11.32-2.81-16.24 2.22-8.79 4.34-17.6 6-26.51l22-115s-4.13 0-4.13-1.77 1.48-2.66-3-6.49S146.33 462.56 141 459.61s7.08-3 7.08-3 37.09 39.45 43.58 45.65 92.77 87 92.77 87z"/><path class="cls-9" d="M276.19 603s71.87 53.17 88.15 69.45 39 60.9 20.46 104.19-43.68 39.35-55.88 29.12c-8.68-7.28-44.66-39.22-64.73-57.06 0 0-4.08 1.88-9.94-3.34a10.28 10.28 0 0 1-2.35-3.14 12.53 12.53 0 0 1-1-7.92z"/><path class="cls-3" d="M1302.11 717.57q-.42 7.21-1 14.13c-6.19 4.71-10.85 15.48-11.5 28.22-.44 8.82 1.13 16.89 4 22.78-29.7 139.86-121.21 167.24-162.67 182.79-20.07 7.53-70.86 25.72-133.5 44.17l-4.39 1.29c-84 24.52-188.17 49-268.22 49-141.67 0-164.1-89.76-175.9-125.18-2.3-6.92-4.75-17.61-7-31.2 1.94-5.68.57-21.88.54-34.12 0-9.13-3.66-19.28-7.61-25.9a877.6 877.6 0 0 1-.48-131c4-3.86 8-11.1 10.46-20.22a66.31 66.31 0 0 0 1.77-8.95 68.72 68.72 0 0 0 0-17.77c-.85-6-2.55-11-4.72-14.18.22-1.3.46-2.57.7-3.85A330 330 0 0 1 560.74 584c20.55-50.67 48.4-75.64 65.2-87.94 13.81 1 36.64-2.36 61.63-9.62 38.86-11.29 68.24-27.8 65.6-36.88-1-3.47-6.56-5.35-15.22-5.71 35.64-9.56 120.26-25 120.26-25s216-35.42 269.17-26l7.46 1.32c5.53 5.49 15.26 10.33 26.88 12.77 14.34 3 27.54 1.49 34.24-3.26 5.5.71 8.15 1 8.15 1s61.39 15.35 81.46 77.92c6.41 20 10.71 46.2 13.49 74.2-4.1 6.16-6.08 16.34-4.71 27.48 1.1 9 4.16 16.85 8.16 22.16 1.93 44.43 1.04 86.99-.4 111.13z"/><path class="cls-9" d="M1294.36 584.31c1.1 9 4.16 16.85 8.16 22.16-.72-16.58-1.83-33.41-3.45-49.64-4.07 6.17-6.07 16.34-4.71 27.48zM1293.59 782.7a422.53 422.53 0 0 0 7.47-51c-6.19 4.71-10.85 15.48-11.5 28.22-.43 8.81 1.14 16.89 4.03 22.78zM1134.85 394.23c5.52 5.49 15.26 10.33 26.88 12.77 14.34 3 27.54 1.49 34.24-3.26-10.16-1.29-30.07-4.1-61.12-9.51zM625.94 496.06c13.81 1 36.64-2.36 61.63-9.62 38.86-11.29 68.24-27.8 65.6-36.88-1-3.47-6.56-5.35-15.22-5.71-1.29.34-2.51.68-3.67 1-33.06 9.44-81.46 33.06-99.17 44.86-2.43 1.61-5.55 3.68-9.17 6.35z"/><path class="cls-15" d="M534.8 843.57c1.79 23.15 4.32 43.67 7.07 60 1.94-5.68.57-21.88.54-34.12-.01-9.11-3.66-19.26-7.61-25.88zM1008 994a77.37 77.37 0 0 1-10.61 15.69l-4.93 1.44.39-.32c4.14-3.49 8.55-9.53 13.07-17.93z"/><path class="cls-16" d="M1029.39 510.59s29 78.59 25.58 218.34c-3.18 128.36-12.67 159.43-12.67 159.43s-15.68 68.59-35.3 105"/><path class="cls-15" d="M792.1 1041c47.22-4.72 67.88-33.09 72.6-48.41s3.12-48.89-23-49h-1.81c-8 .44-16.35 3.91-24.45 9-20.42 12.93-39.14 36.4-45.76 48.54-9.46 17.48-24.8 44.63 22.42 39.87zM1152.76 948.66c24.26 3.55 63.33-35.07 69.26-50 7.47-18.78-4.12-48.76-22.93-39.74-1 .5-2.05 1-3 1.62-6.54 3.77-12 9.1-16.93 15.5a166 166 0 0 0-13.68 21.88c-9.48 17.35-24.82 48.97-12.72 50.74zM912.67 1023c-6.92 6.08-34.38 15.49-51.5 16.09-2.07 0 3.1-11.66 20.07-19.48s24.79-8.56 31.43-7.67 4.87 6.82 0 11.06zM1107.15 971.83c-6.92 6.08-25.22 10.77-40.27 16.09-2.07 0 2.6-8.35 13-15.64 11.47-8 20.64-12.4 27.28-11.51s4.84 6.78-.01 11.06zM1043.86 886.9c-10.7 0-38.22 11.29-60.06 54.38-19.33 39.25-14 54.31-4 59s53.72-8.26 73.2-32.47 29.51-55.49 20.07-70.83-29.21-10.08-29.21-10.08z"/><path class="cls-6" d="M987.29 956.43c-6.35 18.74-9.87 37.69 14.17 36.94 26-.81 53.41-26.28 62.07-49.72 7.11-19.26 5.54-45.54-22.34-38.9-22.56 5.38-46.53 29.92-53.9 51.68z"/><path class="cls-15" d="M1106.92 582.21c0 29.55 14.27 53.5 31.88 53.5s35.42-25.13 35.42-54.68-17.81-52.32-35.42-52.32-31.88 23.96-31.88 53.5zM902.24 631c7.44 28.59 31.23 42 44.51 42s38.32-21 35.85-50.49-27.35-53.45-51.2-53.37c-17.6.05-37.77 28.79-29.16 61.86zM1160.44 483.22c3.4 11.4 10.06 22.21 17.59 31 7 8.25 14.84 14.75 21.46 18.38 3.88 2.14 7.37 3.28 10 3.2 17.6-.52 27.48-43.07 19.37-71.48s-33.83-43.2-50.76-38.37-29.8 16.54-17.66 57.27zM775.57 559.37c16.94 24.21 53.23 47.1 69 43.23 17.1-4.19 31-43.07 22.91-71.49s-35.28-45.75-59.68-45.72c-26.01.03-76.3 11.02-32.23 73.98zM1234.2 707c2.79 13.61 9.73 26.13 22 31 16.36 6.5 35.42-25.13 35.42-54.67s-8.9-52.33-26.5-52.33c-14.59 0-26.42 26.15-30.66 46.08a70.19 70.19 0 0 0-.26 29.93zM825.5 780.05c-1.06 19.27-20.71 60.24-62.52 65-27.55 3.15-55.88-18.46-55.88-48s11.86-57.73 52.45-62.67c44.77-5.45 67.02 26.4 65.95 45.67zM676 883.6c1.6 14.89-8.73 43.76-29.59 46.47-29.61 3.84-41.11-19.46-41.11-34.24s5.95-38.37 26-42.5c27.1-5.61 43.65 20.67 44.7 30.27z"/><path class="cls-10" d="M276.19 593.9s-98.77-86.48-106.25-92.77-21.64-5.51-26 11.41-16.53 78.31-16.53 85-2 31.48 16.13 48.4S237 727.88 237 727.88l9.38 8.61z"/><path class="cls-17" d="M143.58 645.94c-18.1-16.92-16.13-41.71-16.13-48.4s12.2-68.08 16.53-85 18.5-17.71 26-11.41 22 19.64 22 19.64l-30.69 141.11z"/><path class="cls-9" d="M155.77 649.49c-5-5.38-10-10.82-14.52-16.63a39.21 39.21 0 0 1-3.13-4.59 18 18 0 0 1-1.74-5.32 58.27 58.27 0 0 1-.76-11.07c.27-14.79 3-29.35 5.59-43.82s5.7-28.88 8.85-43.26c.41-1.79.76-3.59 1.29-5.4a18.89 18.89 0 0 1 2.34-5.1 9 9 0 0 1 4.33-3.61 7.93 7.93 0 0 1 5.61.3c.44.16.84.41 1.27.61l.63.32.58.39 1.16.78c.37.28.72.59 1.08.88 1.44 1.17 2.74 2.46 4.11 3.69l4 3.77c1.32 1.28 2.68 2.52 3.89 3.91-1.24-1.35-2.64-2.56-4-3.8l-4.13-3.66c-2.78-2.38-5.45-5-8.83-6.35a7.35 7.35 0 0 0-5.18-.21 8.25 8.25 0 0 0-3.94 3.4 18.12 18.12 0 0 0-2.17 4.93c-.49 1.73-.82 3.55-1.2 5.35-3 14.41-5.89 28.83-8.58 43.29s-5.38 28.95-5.84 43.62a57.52 57.52 0 0 0 .58 10.92 17.28 17.28 0 0 0 1.6 5.14 40.42 40.42 0 0 0 3 4.56c4.42 5.88 9.24 11.47 14.11 16.96zM191.93 520.77l-7.03 1.02-27.84 136.28 4.23 3.81 30.64-141.11z"/><path class="cls-18" d="M266.82 592.2c5.12 3.44 9.37 1.7 9.37 1.7l-29.82 142.58-9.37-8.6 28.66-132.24a4.44 4.44 0 0 0-1.16-4s-2.23-2.49 2.32.56z"/><path class="cls-4" d="M907.8 265.7l-164.1 28s-11.76 1.7-15.13-4.11-4.5-8.89.89-15.82 11.94-3.18 11.94-3.18l152.24-20.57-6.82-7.26s1-1.23.45-4.24-.84-4.1-.84-4.1 9.19 5 15.28 12.24 6.14 6 7.3 9.63-1.21 9.41-1.21 9.41z"/><path class="cls-19" d="M136 474.37c-4.62-3.67-9-7.63-13.28-11.72s-8.37-8.35-12.37-12.71a273.58 273.58 0 0 1-22.15-27.78c-3.38-4.88-6.6-9.87-9.63-15s-5.86-10.35-8.48-15.69-5-10.8-7.14-16.38c-1.12-2.76-2-5.6-3-8.41l-1.35-4.27c-.46-1.42-.89-2.85-1.27-4.27L55 349.57c-.81-2.85-1.42-5.75-2.15-8.63s-1.41-5.75-2-8.67-1.25-5.8-1.79-8.71l-1.5-8.77c-.5-2.92-.83-5.88-1.26-8.81s-.71-5.89-1-8.85l-.41-4.43-.26-4.45a198.25 198.25 0 0 1 .89-35.56c.29-3 .87-5.87 1.32-8.8.22-1.47.59-2.91.88-4.36s.57-2.91 1-4.33a125.75 125.75 0 0 1 5.51-16.85c-.82 2.84-1.73 5.63-2.36 8.51s-1.3 5.73-1.86 8.61c-.31 1.43-.45 2.9-.7 4.34s-.49 2.89-.63 4.35c-.28 2.92-.71 5.82-.83 8.75a218.92 218.92 0 0 0 .47 35.09 323.81 323.81 0 0 0 5.14 34.72c2.38 11.47 5.14 22.87 8.41 34.13.37 1.42.79 2.82 1.22 4.21l1.29 4.17c1 2.74 1.84 5.52 2.93 8.23 2 5.47 4.41 10.79 6.85 16.09s5.2 10.46 8 15.56 5.93 10.08 9.1 15a318.08 318.08 0 0 0 20.84 28.32c3.72 4.55 7.59 9 11.56 13.31 2 2.18 4 4.31 6.06 6.42s4.17 4.2 6.28 6.21zM70.77 541.07a63.79 63.79 0 0 0-10.45-5.6 30.13 30.13 0 0 0-11-2.6 15.83 15.83 0 0 0-5.21.81 13.54 13.54 0 0 0-4.43 2.57 20.72 20.72 0 0 0-3.55 4.08c-1.17 1.54-2.24 3.17-3.31 4.8-4.26 6.56-8.08 13.49-11.91 20.44s-7.48 14-11.35 21.07a160.79 160.79 0 0 1 8-22.68 146.31 146.31 0 0 1 11.27-21.41c1.14-1.69 2.27-3.39 3.54-5a23.85 23.85 0 0 1 4.46-4.76 16.9 16.9 0 0 1 6-3.08 17.84 17.84 0 0 1 6.63-.5 29 29 0 0 1 11.8 4.2 42.75 42.75 0 0 1 9.51 7.66z"/><path class="cls-4" d="M711.23 254.78s-.89-5.61-15.35-18.59-78.42-67.4-140.49-114.81c-7.38-4.13-37.31-21.84-37.31-21.84s-.46-11.54 6.33-15.64 14.76-7.38 34.83-10.63 93-14.87 93-14.87 138.54 68.48 230.16 168c18.02 17.68-171.17 28.38-171.17 28.38z"/><path class="cls-18" d="M652.25 58.41S579.3 70 559.23 73.27s-28 6.49-34.83 10.63-6.32 15.64-6.32 15.64l37.31 21.84a5.43 5.43 0 0 1 4.17-6.42c5.28-1.55 102.67-19.56 112.12-21.33s35.32-4.9 35.32-4.9z"/><g class="cls-20"><path class="cls-21" d="M558 107.21c-2.58-1.36-5.13-2.77-7.6-4.33a47.33 47.33 0 0 1-7.05-5.23 13 13 0 0 1-2.73-3.53 4.19 4.19 0 0 1 .29-4.48 9.38 9.38 0 0 1 3.62-2.7 28.24 28.24 0 0 1 4.15-1.56c5.65-1.7 11.47-2.41 17.2-3.39l17.26-2.81 34.56-5.39 17.29-2.6 17.31-2.47-17.22 3-17.3 2.98-34.51 5.65L566 83.06a161.18 161.18 0 0 0-17.12 3.2 27.4 27.4 0 0 0-4.05 1.44 8.66 8.66 0 0 0-3.37 2.4 3.47 3.47 0 0 0-.29 3.77 12.63 12.63 0 0 0 2.53 3.39 46.9 46.9 0 0 0 6.82 5.38c2.42 1.6 4.92 3.1 7.48 4.57z"/></g><path class="cls-18" d="M737.5 103.08s-38.07 2.36-47.52 3.84-18 14.76-18.3 23 47.52 45.45 56.08 52.83c6.49 5.59 42.94-1.67 57.65-5.51 8.28-2.16 12.59-20.66 5.21-27.55-12.91-12.02-53.12-46.61-53.12-46.61z"/><path d="M734.27 179.34a9.12 9.12 0 0 0 4.36 2.62c11.43 3.17 33-1.1 46.79-4.7 8.28-2.16 14.12-21.71 4.72-25.38-4.53-1.77-39.07 2.66-44.47 3.34-10.82 1.37-14.26 8.31-14.56 15.15a12.22 12.22 0 0 0 3.16 8.97z"/><path d="M787.95 147.61a16.33 16.33 0 0 0-4.21-.2c-1.41 0-2.83.14-4.24.25-2.83.22-5.65.47-8.48.77l-17 1.64-8.47.94a35.62 35.62 0 0 0-8.28 1.61 17 17 0 0 0-7.07 4.4 12.2 12.2 0 0 0-3.21 7.63h-.12a12.44 12.44 0 0 1 3.13-7.85 17.46 17.46 0 0 1 7.13-4.72 36.23 36.23 0 0 1 8.38-1.82l8.46-1.12c5.64-.72 11.29-1.47 17-1.88 2.84-.19 5.69-.37 8.54-.42h4.28c.71 0 1.43.08 2.14.17a7.77 7.77 0 0 1 2.11.46z"/><g class="cls-20"><path class="cls-21" d="M522 85.95a.72.72 0 0 0-.56.76 2.42 2.42 0 0 0 .32 1 9.27 9.27 0 0 0 1.24 1.63 33.36 33.36 0 0 0 3.06 2.86c2.14 1.8 4.38 3.48 6.67 5.11 4.57 3.25 9.28 6.3 14 9.27s9.56 5.84 14.3 8.93 9.35 6.31 14 9.5c18.29 13.17 35.83 27.28 53.19 41.6q13 10.79 25.77 21.78c8.5 7.37 17 14.72 25.38 22.22s16.74 15 25 22.6c2.05 1.89 4.18 3.81 6.08 5.93a38.44 38.44 0 0 1 5 6.89 23.19 23.19 0 0 1 2.85 8 19.11 19.11 0 0 1-.74 8.39 18.84 18.84 0 0 0 .21-8.3 22.62 22.62 0 0 0-3.14-7.63 37.32 37.32 0 0 0-5.2-6.45c-1.95-2-4.09-3.73-6.25-5.55l-25.71-21.82L651.89 191c-8.59-7.24-17.18-14.47-25.85-21.61q-6.47-5.4-13-10.73l-6.52-5.33L600 148c-8.7-7.09-17.59-13.94-26.49-20.76-4.53-3.29-9-6.7-13.65-9.79s-9.36-6.21-14-9.42-9.21-6.49-13.65-10c-2.21-1.74-4.4-3.53-6.46-5.46a33.64 33.64 0 0 1-2.91-3.09 9.45 9.45 0 0 1-1.17-1.77 2.5 2.5 0 0 1-.27-1 .75.75 0 0 1 .6-.76z"/></g><path class="cls-22" d="M685.25 108.63l-.16.09-4.5-3.53c1.57 1.15 3.11 2.3 4.66 3.44z"/><path class="cls-23" d="M588 34.85C522.39 6.83 461.78.35 418.36 0c43.79-.34 107.58 5.21 176.92 34.83 38 16.23 81 44.17 116.82 70l-6.59.52C669.55 79.39 626.2 51.18 588 34.85z"/><path class="cls-24" d="M536.13 26C599 43.14 640.1 70.17 687.91 105.2l2.3 1.69h-.23a14.16 14.16 0 0 0-4.73 1.72c-1.55-1.15-3.09-2.29-4.65-3.44-30.9-24.1-66.65-48.43-100.2-62.76-15.22-6.48-30-11.88-44.27-16.41zM304.07 14.63l-5.18 4.76c-6 1.67-9.71 2.82-9.71 2.82L276.33 34c-1.06.54-1.61.85-1.61.85l22-20.21S332 5.11 361.1 2.75c11-.89 31-2.94 57.26-2.73-22.68.18-40 1.93-49.94 2.73-29.13 2.36-64.35 11.88-64.35 11.88z"/><path class="cls-25" d="M705.5 105.35c-6.48.53-12.23 1.07-15.29 1.53l-2.3-1.69C640.1 70.16 599.05 43.13 536.13 26c-13.49-3.67-28-6.89-43.76-9.63a469.23 469.23 0 0 0-84.29-7.18c-58.85-.5-99.11 11.41-119 19.16l9.81-9 5.18-4.75s35.22-9.52 64.34-11.88c9.94-.81 27.26-2.56 50-2.74 43.42.34 104 6.82 169.61 34.83 38.18 16.37 81.53 44.58 117.48 70.54z"/><path class="cls-5" d="M276.33 34c2.14-1.09 6.4-3.14 12.75-5.61l-7 6.46s43.75-24.85 126-25.63a474 474 0 0 1 77 7.18c89.4 15.49 137.47 46.25 195.53 88.79l4.5 3.53c-4.09 2.36-7.72 6.58-10.17 11-1.11-.87-2.2-1.72-3.24-2.51C614.47 73.56 566.88 39.47 477.48 24 341.15.36 267.14 42.43 267.14 42.43z"/><path class="cls-3" d="M408.08 9.22C325.83 10 282 34.85 282 34.85l7-6.46c20-7.76 60.23-19.66 119.08-19.17z"/><path class="cls-3" d="M298.89 19.39l-9.81 9c-6.34 2.47-10.61 4.52-12.75 5.61l12.84-11.78s3.74-1.16 9.72-2.83zM492.37 16.4c15.79 2.74 30.27 6 43.76 9.63 14.26 4.5 29 9.9 44.25 16.4 33.55 14.33 69.3 38.66 100.2 62.76-58.05-42.54-106.12-73.3-195.52-88.79a474 474 0 0 0-77-7.18 468.7 468.7 0 0 1 84.31 7.18z"/><path class="cls-18" d="M771.26 180.48c-1.41.29-2.86.57-4.34.85l-.07-.07q2.23-.36 4.41-.78zM773.24 180.09l-2 .41z"/><path class="cls-4" d="M711.23 254.78s.55 16.28-5.73 11.48 2.36 6.37 8.25 5.78 14.15-6.2 14.15-6.2l150.1-17.4s10.57 1.14 9.42-8.51-3.87-11.72-3.87-11.72l-35.65-22.57z"/><path class="cls-23" d="M767.14 152.74c9.08 7.43 14.33 11.94 14.33 11.94s1.06.91 3 2.61l.72.64.89.78c.41.37.85.76 1.31 1.18s.76.67 1.16 1.05c.61.54 1.25 1.13 1.92 1.74l.33.3.07.06.27.26 1.43 1.31c.25.21.5.45.74.67l1.53 1.43 1.62 1.5c2.8 2.62 5.9 5.56 9.23 8.77l2.79 2.73 1 1c.34.33.68.66 1 1l1 1 1.05 1 2.13 2.12c3.58 3.59 7.3 7.4 11.09 11.4l1.13 1.2c.77.8 1.52 1.62 2.29 2.44l1.15 1.23 2.3 2.5c.39.41.77.84 1.16 1.26 1.53 1.69 3.08 3.4 4.62 5.14.77.87 1.53 1.74 2.3 2.62l1.15 1.31q1.74 2 3.44 4 1.15 1.35 2.27 2.69l1.13 1.36 1.35 1.63.9 1.1c.76.91 1.49 1.83 2.22 2.75l1.1 1.38c1.83 2.3 3.64 4.62 5.37 7q1.06 1.4 2.09 2.8c.09.13.19.25.27.38.94 1.28 1.88 2.56 2.77 3.84l.19.27c1.59 2.26 3.14 4.52 4.64 6.78l.92 1.41c.93 1.4 1.83 2.81 2.69 4.23.59.93 1.16 1.88 1.71 2.81s1.11 1.87 1.64 2.8 1.06 1.86 1.57 2.79c.25.46.51.93.76 1.4s.5.92.73 1.38c.74 1.38 1.44 2.77 2.1 4.14.45.92.89 1.83 1.29 2.74q1.89 4.14 3.35 8.18c.21.57.41 1.12.6 1.69.25.73.48 1.46.71 2.18.44 1.39.85 2.79 1.25 4.17.25.85.48 1.71.72 2.56.38 1.33.73 2.66 1.07 4q.41 1.52.78 3c0 .12.06.22.08.34q1.26 3.06 2.43 6.13a373.88 373.88 0 0 1 16.09 54.74c3.51 16 5.42 24 6.47 28 8.36-1.18 16.81-2.42 24.52-3.57A395.59 395.59 0 0 0 924.81 339a404.39 404.39 0 0 0-17.87-41.71c-.48-1-1-1.92-1.48-2.89l-1-1.82q-.25-.5-.53-1c-.54-1-1.1-2.05-1.68-3.07-.46-.85-.94-1.7-1.43-2.54-.3-.53-.6-1.07-.92-1.61-.61-1.06-1.24-2.11-1.88-3.16s-1.18-1.95-1.78-2.92c-.45-.74-.91-1.48-1.38-2.21-.57-.9-1.13-1.78-1.71-2.68l-.07-.11q-1.47-2.28-3-4.53c-.14-.21-.28-.44-.44-.65l-.71-1.05-1.84-2.63c-.73-1.06-1.49-2.11-2.23-3.15-.91-1.26-1.83-2.53-2.76-3.77-.52-.71-1-1.4-1.57-2.1-.79-1.05-1.59-2.1-2.38-3.13l-1.3-1.66-1.43-1.81c-.21-.28-.43-.56-.65-.83-.52-.66-1-1.31-1.57-2l-.51-.63c-.9-1.11-1.79-2.21-2.7-3.31s-1.63-2-2.44-2.93a94.65 94.65 0 0 0-1.61-1.89l-2.44-2.83-2.09-2.38c-.93-1.06-1.87-2.1-2.81-3.14q-2.46-2.74-4.92-5.38t-4.92-5.21c-.81-.86-1.63-1.7-2.44-2.54q-2.44-2.52-4.85-4.92c-.8-.8-1.61-1.61-2.41-2.38-6-5.91-11.76-11.35-17.15-16.22-.72-.65-1.43-1.3-2.14-1.92-3.52-3.15-6.85-6.06-9.93-8.69l-1.84-1.52-.94-.79-2.49-2.09-1.16-1-.9-.73-2.66-2.18-1.32-1.06-1.32-1.06-.63-.5-.6-.48c-.26-.19-.51-.39-.74-.58l-.4-.32c-.37-.28-.72-.55-1.05-.83l-.35-.27-.3-.24-2.3-1.77-.47-.35c-1-.79-1.58-1.19-1.58-1.19s-5.55-4.77-15.09-12.55c-2.14.22-4.35.42-6.56.65z"/><path class="cls-25" d="M771.26 180.48l2-.39-2 .4c28.74 27.31 50.74 52.25 65.5 72.39.47.64.93 1.27 1.38 1.9.71 1 1.39 1.95 2.07 2.89 10.64 14.92 18.22 26.92 23.72 38.6 7.74 16.41 11.42 32.22 13.77 54.72a262.16 262.16 0 0 1-.18 53.6c5.6-.54 12.9-1.43 21-2.48 0-.38.08-.84.13-1.36 0-.34.07-.71.11-1.11s.08-.87.12-1.36.07-1 .12-1.48c0-.3 0-.6.06-.91s0-.58.06-.87q.05-.9.11-1.88c0-.33 0-.66.06-1V392c.11-1.94.19-4.08.25-6.43.13-4.85.15-10.57-.06-16.94v-.06c-.06-1.69-.13-3.42-.22-5.21q-.32-6.3-1-13.29c-.06-.71-.13-1.42-.21-2.14-.15-1.43-.32-2.88-.48-4.35-.43-3.67-1-7.45-1.58-11.31-.12-.77-.25-1.55-.38-2.31s-.26-1.56-.4-2.35c-.67-3.8-1.44-7.66-2.34-11.59-.38-1.75-.79-3.51-1.23-5.28 0-.12-.06-.22-.08-.34q-.37-1.52-.78-3c-.34-1.32-.7-2.64-1.07-4-.24-.85-.47-1.71-.72-2.56-.4-1.38-.81-2.77-1.25-4.17-.22-.72-.46-1.45-.71-2.18-.19-.57-.39-1.12-.6-1.69q-1.45-4-3.35-8.18c-.41-.91-.85-1.82-1.29-2.74-.67-1.37-1.37-2.75-2.1-4.14-.24-.46-.48-.92-.73-1.38l-.76-1.4c-.52-.92-1-1.85-1.57-2.79s-1.09-1.87-1.64-2.8l-1.71-2.81c-.87-1.41-1.77-2.81-2.69-4.23l-.92-1.41c-1.5-2.25-3-4.52-4.64-6.78l-.19-.27c-.91-1.28-1.84-2.56-2.77-3.84-.08-.13-.18-.25-.27-.38q-1-1.4-2.09-2.8c-1.76-2.33-3.55-4.65-5.37-7l-1.1-1.38-2.24-2.67-.9-1.1-1.35-1.63-1.13-1.36q-1.12-1.35-2.27-2.69-1.7-2-3.44-4l-1.15-1.31c-.77-.89-1.53-1.75-2.3-2.62-1.53-1.74-3.08-3.45-4.62-5.14-.39-.42-.77-.85-1.16-1.26l-2.3-2.5-1.13-1.19c-.77-.83-1.52-1.64-2.29-2.44l-1.13-1.2c-3.79-4-7.51-7.82-11.09-11.4l-2.13-2.12-1.05-1-1-1-1-1-1-1-2.87-2.84c-3.33-3.21-6.43-6.15-9.23-8.77l-1.62-1.5c-.52-.48-1-1-1.53-1.43-.25-.22-.5-.46-.74-.67l-1.43-1.31-.27-.26-.07-.06-.33-.31c-.67-.6-1.31-1.19-1.92-1.74-.4-.37-.79-.71-1.16-1.05l-1.31-1.18-.89-.78-.72-.64c-1.92-1.7-3-2.61-3-2.61s-5.25-4.51-14.33-11.94c-5.16.52-10.27 1.11-14.28 1.59l-7.19.9c-.67.08-1.3.19-1.91.31q14.64 12.72 27.5 24.93z"/><path class="cls-24" d="M879.67 277.76c.73 1.39 1.43 2.77 2.1 4.14-.66-1.37-1.35-2.76-2.1-4.14zM864.82 253.9c1.65 2.35 3.27 4.7 4.83 7q-2.32-3.48-4.83-7zM854.32 239.93c1.82 2.3 3.61 4.63 5.37 7-1.69-2.38-3.54-4.7-5.37-7zM790.46 172.66l.33.31z"/><path class="cls-5" d="M731.17 169.43c4.67 4.43 9.39 9 14.07 13.53l1.42 1.39c26.17 25.59 51.39 52.32 65.95 71.29 1.23 1.61 2.38 3.16 3.46 4.65l.48.68c11 15.36 18.53 29.67 23.52 43.54 7.18 20 9 39 8.11 58.88-.5 10.66-1 19.21-1.48 25.93 5.82 5.91 14.89 13.2 19.07 15.3 1.52-20.6 2.41-62.05-9.92-101.82q-1.35-4.34-3.15-8.78c-4.69-11.64-11.51-23.67-19.35-35.37a294.75 294.75 0 0 0-3.4-5c-22.9-32.82-52.51-62.24-63-72.31l-.07-.06c-2.44-2.35-3.84-3.62-3.84-3.62s-8.36-8.43-22.27-21.26c-6.61 2.44-9.13 7.68-9.6 13.03zM202.41 83s7.08-30.14 72-57.85 86.18-23 86.18-23-44.27 5.9-62 20.66-21.84 10.92-27.15 19.62a96.2 96.2 0 0 0-8.31 17.94z"/><path class="cls-15" d="M1089.6 391.31s26 7.5 46 29.34c17.71 21.84 16.53 56.08-23 67.88-40.73 11.81-83.23 22.06-83.23 22.06s-52.06 5.1-74.14 5.69-63.69 3.54-88.63-17.71-34.39-39-49.14-50.17-32-15.39-32-15.39 115-21.51 166.06-27.87 138.08-13.83 138.08-13.83z"/><path class="cls-19" d="M380.21 786.16c18.5-43.29 9.88-88.56-15.87-113.75-16.28-16.28-88.15-69.41-88.15-69.41l4.92-.89s72.3 51.78 85.59 66.21c18.54 20.14 28.28 42.94 28.14 67.88s-14.63 49.96-14.63 49.96z"/><path class="cls-11" d="M1002.24 951.46c.32 9.39 6.69 14 13.38 14 4.72 0 15.35-5.82 15.35-18.43 0-7.55-4.29-18.43-13-18.43s-16.17 10.12-15.73 22.86z"/><path class="cls-26" d="M1015.63 932.35a18.3 18.3 0 0 0-4.13 3.92 30.74 30.74 0 0 0-3.21 4.63 21.25 21.25 0 0 0-1.82 5.49 23.84 23.84 0 0 0-.37 5.9h-.23a22 22 0 0 1-.56-6.08 20 20 0 0 1 1.26-6.09 13.94 13.94 0 0 1 3.2-5.48 8.35 8.35 0 0 1 5.82-2.55z"/><ellipse class="cls-27" cx="946.75" cy="645.94" rx="13.77" ry="19.68" transform="rotate(-16.08 946.774 645.975)"/><ellipse class="cls-27" cx="1131.26" cy="613.11" rx="12.13" ry="18.67" transform="rotate(-3.82 1131.274 613.06)"/><path class="cls-27" d="M1234.2 707a5.82 5.82 0 0 0 1.57.09c5.38-.35 9.3-7.37 8.75-15.67-.53-7.93-5-14.15-10.06-14.35a70.19 70.19 0 0 0-.26 29.93z"/><ellipse class="cls-27" cx="834.32" cy="582.69" rx="13.03" ry="14.27" transform="rotate(-27.83 834.303 582.69)"/><path class="cls-27" d="M1178 514.24c7 8.25 14.84 14.75 21.46 18.38 2.92-4.75 2.44-11.32-1.57-16.24-5-6.11-13.54-7.38-19.13-2.82-.24.22-.5.44-.76.68zM1179.14 876.06a12.48 12.48 0 0 0 10.71-.35c5.3-2.81 7.7-9.09 6.22-15.15-6.54 3.76-12.01 9.1-16.93 15.5z"/><ellipse class="cls-27" cx="799.32" cy="780.82" rx="17.45" ry="15.42" transform="rotate(-32.93 799.256 780.778)"/><ellipse class="cls-27" cx="647.82" cy="889.04" rx="14.62" ry="12.91" transform="rotate(-32.93 647.756 888.998)"/><path class="cls-27" d="M817.69 961.38a14.25 14.25 0 1 0 22.18-17.67c-8 .44-16.35 3.91-24.45 9a14.19 14.19 0 0 0 2.27 8.67z"/><ellipse class="cls-15" cx="622.35" cy="519.75" rx="29.74" ry="14.2" transform="rotate(-27.83 622.351 519.746)"/><path class="cls-15" d="M562.83 839.16c11.16-2.75 21.93-28.33 20.79-52-1.05-21.89-13.78-45.45-30.29-41.66-10.92 3.15-15.43 35.32-12.38 52.33 2.58 14.36 6.7 45.08 21.88 41.33z"/><ellipse class="cls-27" cx="563.66" cy="792.24" rx="10.33" ry="16.53"/><ellipse class="cls-27" cx="624.47" cy="523.2" rx="14.17" ry="10.31" transform="rotate(-27.83 624.471 523.206)"/><path class="cls-15" d="M647.58 741.09c15-4.24 29.4-25.83 24-47.06S644.5 660.4 628 664.19s-29.4 25.83-24 47.06 28.53 34.09 43.58 29.84zM534.31 712.51c3.87-3.77 7.82-10.72 10.26-19.51.07-.24.14-.47.2-.71a66.33 66.33 0 0 0 1.77-8.95c.21-1.69.37-3.36.45-5a65.07 65.07 0 0 0-.44-12.77c-.85-6-2.55-11-4.72-14.18v.06q-1.29 7.26-2.38 14.64-1.86 12.47-3.2 25.15-1.15 10.61-1.94 21.27z"/><path class="cls-15" d="M539.91 704.76c-.2.36-.4.72-.6 1.07.2-.35.4-.71.6-1.07zm-1.32 2.24q-.33.54-.67 1 .33-.42.67-1zm.66-1.1c-.21.36-.42.71-.63 1.05.21-.3.38-.65.63-1.01zm2.58-5.14q-.26.6-.53 1.19.26-.54.52-1.15zm-1.26 2.7c-.19.37-.38.74-.57 1.1.18-.31.37-.68.56-1.05zm.64-1.31c-.18.39-.36.76-.55 1.13.18-.28.34-.7.54-1.09zm5.91-27.45v-3c-.01 1.03 0 2.03-.01 3.05zm-.27-6.53c-.08-.9-.18-1.78-.29-2.64.11.9.2 1.79.29 2.68zm.22 3.27c0-.86-.09-1.7-.15-2.53.08.87.08 1.71.14 2.57zm-.52 11.86c.21-1.69.37-3.36.45-5 .07-1.06.1-2.11.12-3.14a72.64 72.64 0 0 1-.58 8.18zm-1.77 8.95c-.36 1.35-.76 2.64-1.18 3.9q.52-1.55 1-3.19c.04-.2.11-.43.17-.67zm-2.34 7.06c-.17.43-.34.85-.52 1.26q.26-.57.51-1.22zm.59-1.53q-.25.69-.52 1.36.26-.63.49-1.32zm.56-1.58q-.25.75-.52 1.47.26-.67.51-1.43z"/><circle class="cls-27" cx="645.71" cy="701.37" r="14.17"/><path class="cls-15" d="M1294.36 584.31c1.1 9 4.16 16.85 8.16 22.16-.72-16.58-1.83-33.41-3.45-49.64-4.07 6.17-6.07 16.34-4.71 27.48zM1134.85 394.23c5.52 5.49 15.26 10.33 26.88 12.77 14.34 3 27.54 1.49 34.24-3.26-10.16-1.29-30.07-4.1-61.12-9.51zM625.94 496.06c13.81 1 36.64-2.36 61.63-9.62 38.86-11.29 68.24-27.8 65.6-36.88-1-3.47-6.56-5.35-15.22-5.71-1.29.34-2.51.68-3.67 1-33.06 9.44-81.46 33.06-99.17 44.86-2.43 1.61-5.55 3.68-9.17 6.35zM1293.59 782.7a422.53 422.53 0 0 0 7.47-51c-6.19 4.71-10.85 15.48-11.5 28.22-.43 8.81 1.14 16.89 4.03 22.78z"/><path class="cls-19" d="M547.36 930.54c-1.55-5.91-2.89-11.87-4.13-17.85s-2.27-12-3.29-18c-2-12.05-3.74-24.15-5.24-36.29q-4.17-36.43-5.46-73.16-.33-9.17-.45-18.36c-.07-6.12 0-12.25.08-18.37q.29-18.38 1.52-36.75a498 498 0 0 1 10.29-73q2.07-9 4.58-17.93c.87-3 1.74-5.93 2.68-8.85s1.82-5.87 2.82-8.78A365.63 365.63 0 0 1 564 568.7a240.33 240.33 0 0 1 17.61-32.7 134.85 134.85 0 0 1 24.2-28.51 113.74 113.74 0 0 1 15.1-11.16c2.63-1.65 5.31-3.2 7.85-4.74.65-.39 1.24-.78 1.87-1.17l1.87-1.26c.73-.5 1.42-.9 2.12-1.3s1.38-.77 2.07-1.15c5.51-2.92 11.05-5.47 16.62-8s11.13-5 16.76-7.43q16.85-7.18 33.8-14.08l17-6.88 17-6.67.18.43c-22.42 9.59-44.78 19.33-67 29.42q-8.32 3.79-16.58 7.7c-5.49 2.63-11 5.27-16.32 8.2-1.32.74-2.66 1.48-3.89 2.34-.62.41-1.25.88-1.88 1.31s-1.27.85-1.92 1.25c-2.58 1.63-5.2 3.19-7.75 4.85a110.28 110.28 0 0 0-14.48 11.05 118.13 118.13 0 0 0-12.52 13.24 153.64 153.64 0 0 0-10.66 14.8 236 236 0 0 0-17 32.28c-4.89 11.15-9.15 22.58-13 34.15-1 2.88-1.86 5.8-2.77 8.71s-1.77 5.83-2.61 8.75q-2.46 8.79-4.46 17.71a500.74 500.74 0 0 0-10.46 72.27c-1.85 24.3-2.37 48.7-1.91 73.07s1.92 48.72 4.27 73c1.19 12.13 2.59 24.24 4.3 36.31s3.67 24.11 6.33 36z"/><path class="cls-28" d="M1028.53 435.99l-33.83 5.36.95 5.81 14.11-2.29 3.67 22.26 5.93-1.05-3.65-22.18 13.75-2.23-.93-5.68zM975.58 444.53l-11.66 1.85a13 13 0 0 0-5.73 2.39l-1.72-10.41-6.4 1 6.24 37.88 6.38-1.13-2.84-17.25a5.85 5.85 0 0 1 5-6.55l11.65-1.89a5.77 5.77 0 0 1 6.74 4.56l2.8 17 6.15-1.09-2.79-16.93c-.98-6.26-7.18-10.48-13.82-9.43zM1070.11 451.3a5.2 5.2 0 0 1-1.17.35l-20.18 3.49a5.33 5.33 0 0 1-6.2-4.34l-.91-5.54a5.37 5.37 0 0 1 4.47-6.13l20.21-3.28a5.24 5.24 0 0 1 1.22 0l-.92-5.58a10.83 10.83 0 0 0-1.21.12l-20.23 3.21a11.07 11.07 0 0 0-9.27 12.66l.92 5.56a11 11 0 0 0 12.83 9l20.17-3.56a10.84 10.84 0 0 0 1.18-.28z"/></g></g></g></g></svg>
